<svg width="104" height="21" viewBox="0 0 104 21" fill="none" xmlns="http://www.w3.org/2000/svg">
<path d="M2.34081 20.234C1.68214 20.234 1.17947 20.052 0.832805 19.688C0.486139 19.324 0.312805 18.8127 0.312805 18.154V3.72399C0.312805 3.04799 0.486139 2.53666 0.832805 2.18999C1.19681 1.84332 1.70814 1.66999 2.36681 1.66999H8.6848C10.7301 1.66999 12.3075 2.18999 13.4168 3.22999C14.5261 4.25266 15.0808 5.68266 15.0808 7.51999C15.0808 9.35732 14.5261 10.796 13.4168 11.836C12.3075 12.876 10.7301 13.396 8.6848 13.396H4.34281V18.154C4.34281 18.8127 4.16947 19.324 3.82281 19.688C3.49347 20.052 2.99947 20.234 2.34081 20.234ZM4.34281 10.276H8.00881C9.04881 10.276 9.83747 10.042 10.3748 9.57399C10.9295 9.10599 11.2068 8.42132 11.2068 7.51999C11.2068 6.61866 10.9295 5.94266 10.3748 5.49199C9.83747 5.04132 9.04881 4.81599 8.00881 4.81599H4.34281V10.276Z" fill="white"/>
<path d="M19.2164 20.208C18.5751 20.208 18.0811 20.026 17.7344 19.662C17.4051 19.2807 17.2404 18.752 17.2404 18.076V9.18399C17.2404 8.49066 17.4051 7.96199 17.7344 7.59799C18.0811 7.21666 18.5751 7.02599 19.2164 7.02599C19.8404 7.02599 20.3171 7.21666 20.6464 7.59799C20.9931 7.96199 21.1664 8.49066 21.1664 9.18399V18.076C21.1664 18.752 21.0018 19.2807 20.6724 19.662C20.3431 20.026 19.8578 20.208 19.2164 20.208ZM19.2164 4.89399C18.4884 4.89399 17.9251 4.72932 17.5264 4.39999C17.1451 4.05332 16.9544 3.56799 16.9544 2.94399C16.9544 2.30266 17.1451 1.81732 17.5264 1.48799C17.9251 1.14132 18.4884 0.96799 19.2164 0.96799C19.9444 0.96799 20.4991 1.14132 20.8804 1.48799C21.2618 1.81732 21.4524 2.30266 21.4524 2.94399C21.4524 3.56799 21.2618 4.05332 20.8804 4.39999C20.4991 4.72932 19.9444 4.89399 19.2164 4.89399Z" fill="white"/>
<path d="M26.1735 20.234C25.5321 20.234 25.0381 20.0607 24.6915 19.714C24.3621 19.3673 24.1975 18.8733 24.1975 18.232V9.00199C24.1975 8.36066 24.3621 7.87532 24.6915 7.54599C25.0381 7.19932 25.5148 7.02599 26.1215 7.02599C26.7455 7.02599 27.2221 7.19932 27.5515 7.54599C27.8808 7.87532 28.0455 8.36066 28.0455 9.00199V10.484L27.7595 9.62599C28.1581 8.77666 28.7475 8.12666 29.5275 7.67599C30.3248 7.20799 31.2261 6.97399 32.2315 6.97399C33.2541 6.97399 34.0948 7.17332 34.7535 7.57199C35.4121 7.95332 35.9061 8.54266 36.2355 9.33999C36.5648 10.12 36.7295 11.1167 36.7295 12.33V18.232C36.7295 18.8733 36.5561 19.3673 36.2095 19.714C35.8801 20.0607 35.3948 20.234 34.7535 20.234C34.1295 20.234 33.6441 20.0607 33.2975 19.714C32.9681 19.3673 32.8035 18.8733 32.8035 18.232V12.512C32.8035 11.628 32.6388 10.9953 32.3095 10.614C31.9975 10.2153 31.5121 10.016 30.8535 10.016C30.0215 10.016 29.3541 10.276 28.8515 10.796C28.3661 11.316 28.1235 12.0093 28.1235 12.876V18.232C28.1235 19.5667 27.4735 20.234 26.1735 20.234Z" fill="white"/>
<path d="M45.076 20.234C43.8067 20.234 42.7147 20.038 41.8 19.646C40.8853 19.2353 40.1853 18.6753 39.7 17.966C39.2333 17.238 39 16.3793 39 15.39C39 14.774 39.084 14.2047 39.252 13.682C39.42 13.1593 39.672 12.6647 40.008 12.198C40.3627 11.7127 40.8013 11.2367 41.324 10.77C41.8653 10.3033 42.4907 9.82735 43.2 9.34201L44.096 8.72601L43.872 9.09001C42.92 8.04468 42.2573 7.16735 41.884 6.45801C41.5293 5.73001 41.352 4.99268 41.352 4.24601C41.352 3.40601 41.5387 2.67801 41.912 2.06201C42.304 1.42735 42.8453 0.932679 43.536 0.578012C44.2267 0.223345 45.0387 0.046011 45.972 0.046011C47.148 0.046011 48.128 0.391344 48.912 1.08201C49.7147 1.75401 50.116 2.68734 50.116 3.88201C50.116 4.53535 49.9853 5.15135 49.724 5.73001C49.4813 6.29001 49.052 6.86868 48.436 7.46601C47.82 8.04468 46.9427 8.69801 45.804 9.42601L45.86 8.95001L51.32 15.166H50.928C51.1893 14.6993 51.4227 14.158 51.628 13.542C51.852 12.926 52.0293 12.254 52.16 11.526C52.2907 10.7793 52.3747 10.0047 52.412 9.20201C52.4493 8.92201 52.5333 8.71668 52.664 8.58601C52.7947 8.45535 52.9907 8.39001 53.252 8.39001C53.4947 8.39001 53.6813 8.46468 53.812 8.61401C53.9427 8.76335 53.9893 8.97801 53.952 9.25801C53.9147 10.2287 53.8027 11.1433 53.616 12.002C53.4293 12.8607 53.196 13.654 52.916 14.382C52.636 15.11 52.3093 15.782 51.936 16.398L51.908 15.81L54.736 19.03C54.9227 19.2167 55.0067 19.4033 54.988 19.59C54.988 19.7767 54.9133 19.9167 54.764 20.01C54.6333 20.122 54.456 20.178 54.232 20.178C54.0267 20.178 53.8587 20.1407 53.728 20.066C53.616 20.01 53.476 19.8887 53.308 19.702L50.984 17.042H51.46C50.7133 18.05 49.7893 18.834 48.688 19.394C47.5867 19.954 46.3827 20.234 45.076 20.234ZM45.132 18.778C46.2707 18.778 47.288 18.5353 48.184 18.05C49.08 17.546 49.8453 16.818 50.48 15.866V16.51L44.46 9.76201L45.076 9.81801L44.208 10.406C43.3307 11.0033 42.6307 11.554 42.108 12.058C41.604 12.5433 41.24 13.0473 41.016 13.57C40.8107 14.074 40.708 14.6527 40.708 15.306C40.708 16.3887 41.0813 17.238 41.828 17.854C42.5747 18.47 43.676 18.778 45.132 18.778ZM45.972 1.44601C45.0947 1.44601 44.376 1.70734 43.816 2.23001C43.2747 2.73401 43.004 3.39668 43.004 4.21801C43.004 4.62868 43.0693 5.02068 43.2 5.39401C43.3307 5.74868 43.564 6.15935 43.9 6.62601C44.236 7.07401 44.7027 7.64335 45.3 8.33401L44.768 8.41801C45.72 7.78335 46.4667 7.23268 47.008 6.76601C47.568 6.28068 47.9693 5.82335 48.212 5.39401C48.4547 4.94601 48.576 4.48868 48.576 4.02201C48.576 3.23801 48.3333 2.61268 47.848 2.14601C47.3627 1.67935 46.7373 1.44601 45.972 1.44601Z" fill="white"/>
<path d="M58.6109 20.208C58.0216 20.2253 57.5622 20.0693 57.2329 19.74C56.9036 19.4107 56.7389 18.986 56.7389 18.466C56.7389 18.0673 56.8602 17.7207 57.1029 17.426C57.3282 17.114 57.6662 16.9493 58.1169 16.932L58.8709 16.88C59.5642 16.828 60.0842 16.6287 60.4309 16.282C60.7776 15.9353 60.9509 15.4067 60.9509 14.696V3.48999C60.9509 2.83132 61.1242 2.32866 61.4709 1.98199C61.8176 1.61799 62.3116 1.43599 62.9529 1.43599C63.6116 1.43599 64.1143 1.61799 64.4609 1.98199C64.8076 2.32866 64.9809 2.83132 64.9809 3.48999V14.644C64.9809 15.788 64.7729 16.7587 64.3569 17.556C63.9583 18.336 63.3516 18.9427 62.5369 19.376C61.7222 19.8093 60.7169 20.0693 59.5209 20.156L58.6109 20.208Z" fill="white"/>
<path d="M74.4467 20.286C73.0774 20.286 71.8814 20.0173 70.8587 19.48C69.8534 18.9427 69.0734 18.1713 68.5187 17.166C67.9641 16.1607 67.6867 14.9733 67.6867 13.604C67.6867 12.5813 67.8427 11.6627 68.1547 10.848C68.4667 10.0333 68.9174 9.33999 69.5067 8.76799C70.1134 8.17866 70.8327 7.73666 71.6647 7.44199C72.4967 7.12999 73.4241 6.97399 74.4467 6.97399C75.8161 6.97399 77.0034 7.24266 78.0087 7.77999C79.0314 8.31732 79.8201 9.07999 80.3747 10.068C80.9467 11.056 81.2327 12.2347 81.2327 13.604C81.2327 14.644 81.0681 15.5713 80.7387 16.386C80.4268 17.2007 79.9761 17.9027 79.3867 18.492C78.7974 19.0813 78.0781 19.532 77.2287 19.844C76.3967 20.1387 75.4694 20.286 74.4467 20.286ZM74.4467 17.348C75.0187 17.348 75.5127 17.2093 75.9287 16.932C76.3447 16.6547 76.6741 16.2473 76.9167 15.71C77.1594 15.1553 77.2807 14.4533 77.2807 13.604C77.2807 12.3387 77.0207 11.4113 76.5007 10.822C75.9807 10.2153 75.2961 9.91199 74.4467 9.91199C73.8921 9.91199 73.3981 10.042 72.9647 10.302C72.5487 10.562 72.2194 10.9693 71.9767 11.524C71.7514 12.0613 71.6387 12.7547 71.6387 13.604C71.6387 14.8693 71.8987 15.814 72.4187 16.438C72.9387 17.0447 73.6147 17.348 74.4467 17.348Z" fill="white"/>
<path d="M85.5973 20.208C84.956 20.208 84.462 20.026 84.1153 19.662C83.786 19.2807 83.6213 18.752 83.6213 18.076V9.18399C83.6213 8.49066 83.786 7.96199 84.1153 7.59799C84.462 7.21666 84.956 7.02599 85.5973 7.02599C86.2213 7.02599 86.698 7.21666 87.0273 7.59799C87.374 7.96199 87.5473 8.49066 87.5473 9.18399V18.076C87.5473 18.752 87.3826 19.2807 87.0533 19.662C86.724 20.026 86.2386 20.208 85.5973 20.208ZM85.5973 4.89399C84.8693 4.89399 84.306 4.72932 83.9073 4.39999C83.526 4.05332 83.3353 3.56799 83.3353 2.94399C83.3353 2.30266 83.526 1.81732 83.9073 1.48799C84.306 1.14132 84.8693 0.96799 85.5973 0.96799C86.3253 0.96799 86.88 1.14132 87.2613 1.48799C87.6426 1.81732 87.8333 2.30266 87.8333 2.94399C87.8333 3.56799 87.6426 4.05332 87.2613 4.39999C86.88 4.72932 86.3253 4.89399 85.5973 4.89399Z" fill="white"/>
<path d="M92.5543 20.234C91.913 20.234 91.419 20.0607 91.0723 19.714C90.743 19.3673 90.5783 18.8733 90.5783 18.232V9.00199C90.5783 8.36066 90.743 7.87532 91.0723 7.54599C91.419 7.19932 91.8957 7.02599 92.5023 7.02599C93.1263 7.02599 93.603 7.19932 93.9323 7.54599C94.2617 7.87532 94.4263 8.36066 94.4263 9.00199V10.484L94.1403 9.62599C94.539 8.77666 95.1283 8.12666 95.9083 7.67599C96.7057 7.20799 97.607 6.97399 98.6123 6.97399C99.635 6.97399 100.476 7.17332 101.134 7.57199C101.793 7.95332 102.287 8.54266 102.616 9.33999C102.946 10.12 103.11 11.1167 103.11 12.33V18.232C103.11 18.8733 102.937 19.3673 102.59 19.714C102.261 20.0607 101.776 20.234 101.134 20.234C100.51 20.234 100.025 20.0607 99.6783 19.714C99.349 19.3673 99.1843 18.8733 99.1843 18.232V12.512C99.1843 11.628 99.0197 10.9953 98.6903 10.614C98.3783 10.2153 97.893 10.016 97.2343 10.016C96.4023 10.016 95.735 10.276 95.2323 10.796C94.747 11.316 94.5043 12.0093 94.5043 12.876V18.232C94.5043 19.5667 93.8543 20.234 92.5543 20.234Z" fill="white"/>
</svg>
