<svg width="104" height="21" viewBox="0 0 104 21" fill="none" xmlns="http://www.w3.org/2000/svg">
<path d="M2.3408 20.234C1.68213 20.234 1.17946 20.052 0.832797 19.688C0.48613 19.324 0.312797 18.8127 0.312797 18.154V3.724C0.312797 3.048 0.48613 2.53667 0.832797 2.19C1.1968 1.84333 1.70813 1.67 2.3668 1.67H8.6848C10.7301 1.67 12.3075 2.19 13.4168 3.23C14.5261 4.25267 15.0808 5.68267 15.0808 7.52C15.0808 9.35733 14.5261 10.796 13.4168 11.836C12.3075 12.876 10.7301 13.396 8.6848 13.396H4.3428V18.154C4.3428 18.8127 4.16946 19.324 3.8228 19.688C3.49346 20.052 2.99946 20.234 2.3408 20.234ZM4.3428 10.276H8.0088C9.0488 10.276 9.83746 10.042 10.3748 9.574C10.9295 9.106 11.2068 8.42133 11.2068 7.52C11.2068 6.61867 10.9295 5.94267 10.3748 5.492C9.83746 5.04133 9.0488 4.816 8.0088 4.816H4.3428V10.276ZM19.2164 20.208C18.5751 20.208 18.0811 20.026 17.7344 19.662C17.4051 19.2807 17.2404 18.752 17.2404 18.076V9.184C17.2404 8.49067 17.4051 7.962 17.7344 7.598C18.0811 7.21667 18.5751 7.026 19.2164 7.026C19.8404 7.026 20.3171 7.21667 20.6464 7.598C20.9931 7.962 21.1664 8.49067 21.1664 9.184V18.076C21.1664 18.752 21.0018 19.2807 20.6724 19.662C20.3431 20.026 19.8578 20.208 19.2164 20.208ZM19.2164 4.894C18.4884 4.894 17.9251 4.72933 17.5264 4.4C17.1451 4.05333 16.9544 3.568 16.9544 2.944C16.9544 2.30267 17.1451 1.81733 17.5264 1.488C17.9251 1.14133 18.4884 0.967999 19.2164 0.967999C19.9444 0.967999 20.4991 1.14133 20.8804 1.488C21.2618 1.81733 21.4524 2.30267 21.4524 2.944C21.4524 3.568 21.2618 4.05333 20.8804 4.4C20.4991 4.72933 19.9444 4.894 19.2164 4.894ZM26.1735 20.234C25.5321 20.234 25.0381 20.0607 24.6915 19.714C24.3621 19.3673 24.1975 18.8733 24.1975 18.232V9.002C24.1975 8.36067 24.3621 7.87533 24.6915 7.546C25.0381 7.19933 25.5148 7.026 26.1215 7.026C26.7455 7.026 27.2221 7.19933 27.5515 7.546C27.8808 7.87533 28.0455 8.36067 28.0455 9.002V10.484L27.7595 9.626C28.1581 8.77667 28.7475 8.12667 29.5275 7.676C30.3248 7.208 31.2261 6.974 32.2315 6.974C33.2541 6.974 34.0948 7.17333 34.7535 7.572C35.4121 7.95333 35.9061 8.54267 36.2355 9.34C36.5648 10.12 36.7295 11.1167 36.7295 12.33V18.232C36.7295 18.8733 36.5561 19.3673 36.2095 19.714C35.8801 20.0607 35.3948 20.234 34.7535 20.234C34.1295 20.234 33.6441 20.0607 33.2975 19.714C32.9681 19.3673 32.8035 18.8733 32.8035 18.232V12.512C32.8035 11.628 32.6388 10.9953 32.3095 10.614C31.9975 10.2153 31.5121 10.016 30.8535 10.016C30.0215 10.016 29.3541 10.276 28.8515 10.796C28.3661 11.316 28.1235 12.0093 28.1235 12.876V18.232C28.1235 19.5667 27.4735 20.234 26.1735 20.234ZM46.0203 20.224C44.751 20.224 43.659 20.028 42.7443 19.636C41.8297 19.2253 41.1297 18.6653 40.6443 17.956C40.1777 17.228 39.9443 16.3693 39.9443 15.38C39.9443 14.764 40.0283 14.1947 40.1963 13.672C40.3643 13.1493 40.6163 12.6547 40.9523 12.188C41.307 11.7027 41.7457 11.2267 42.2683 10.76C42.8097 10.2933 43.435 9.81733 44.1443 9.332L45.0403 8.716L44.8163 9.08C43.8643 8.03467 43.2017 7.15733 42.8283 6.448C42.4737 5.72 42.2963 4.98267 42.2963 4.236C42.2963 3.396 42.483 2.668 42.8563 2.052C43.2483 1.41733 43.7897 0.922666 44.4803 0.568C45.171 0.213332 45.983 0.0359983 46.9163 0.0359983C48.0923 0.0359983 49.0723 0.381332 49.8563 1.072C50.659 1.744 51.0603 2.67733 51.0603 3.872C51.0603 4.52533 50.9297 5.14133 50.6683 5.72C50.4257 6.28 49.9963 6.85867 49.3803 7.456C48.7643 8.03467 47.887 8.688 46.7483 9.416L46.8043 8.94L52.2643 15.156H51.8723C52.1337 14.6893 52.367 14.148 52.5723 13.532C52.7963 12.916 52.9737 12.244 53.1043 11.516C53.235 10.7693 53.319 9.99467 53.3563 9.192C53.3937 8.912 53.4777 8.70667 53.6083 8.576C53.739 8.44533 53.935 8.38 54.1963 8.38C54.439 8.38 54.6257 8.45467 54.7563 8.604C54.887 8.75333 54.9337 8.968 54.8963 9.248C54.859 10.2187 54.747 11.1333 54.5603 11.992C54.3737 12.8507 54.1403 13.644 53.8603 14.372C53.5803 15.1 53.2537 15.772 52.8803 16.388L52.8523 15.8L55.6803 19.02C55.867 19.2067 55.951 19.3933 55.9323 19.58C55.9323 19.7667 55.8577 19.9067 55.7083 20C55.5777 20.112 55.4003 20.168 55.1763 20.168C54.971 20.168 54.803 20.1307 54.6723 20.056C54.5603 20 54.4203 19.8787 54.2523 19.692L51.9283 17.032H52.4043C51.6577 18.04 50.7337 18.824 49.6323 19.384C48.531 19.944 47.327 20.224 46.0203 20.224ZM46.0763 18.768C47.215 18.768 48.2323 18.5253 49.1283 18.04C50.0243 17.536 50.7897 16.808 51.4243 15.856V16.5L45.4043 9.752L46.0203 9.808L45.1523 10.396C44.275 10.9933 43.575 11.544 43.0523 12.048C42.5483 12.5333 42.1843 13.0373 41.9603 13.56C41.755 14.064 41.6523 14.6427 41.6523 15.296C41.6523 16.3787 42.0257 17.228 42.7723 17.844C43.519 18.46 44.6203 18.768 46.0763 18.768ZM46.9163 1.436C46.039 1.436 45.3203 1.69733 44.7603 2.22C44.219 2.724 43.9483 3.38667 43.9483 4.208C43.9483 4.61867 44.0137 5.01067 44.1443 5.384C44.275 5.73867 44.5083 6.14933 44.8443 6.616C45.1803 7.064 45.647 7.63333 46.2443 8.324L45.7123 8.408C46.6643 7.77333 47.411 7.22267 47.9523 6.756C48.5123 6.27067 48.9137 5.81333 49.1563 5.384C49.399 4.936 49.5203 4.47867 49.5203 4.012C49.5203 3.228 49.2777 2.60267 48.7923 2.136C48.307 1.66933 47.6817 1.436 46.9163 1.436ZM58.6109 20.208C58.0216 20.2253 57.5622 20.0693 57.2329 19.74C56.9036 19.4107 56.7389 18.986 56.7389 18.466C56.7389 18.0673 56.8602 17.7207 57.1029 17.426C57.3282 17.114 57.6662 16.9493 58.1169 16.932L58.8709 16.88C59.5642 16.828 60.0842 16.6287 60.4309 16.282C60.7776 15.9353 60.9509 15.4067 60.9509 14.696V3.49C60.9509 2.83133 61.1242 2.32867 61.4709 1.982C61.8176 1.618 62.3116 1.436 62.9529 1.436C63.6116 1.436 64.1142 1.618 64.4609 1.982C64.8076 2.32867 64.9809 2.83133 64.9809 3.49V14.644C64.9809 15.788 64.7729 16.7587 64.3569 17.556C63.9582 18.336 63.3516 18.9427 62.5369 19.376C61.7222 19.8093 60.7169 20.0693 59.5209 20.156L58.6109 20.208ZM74.4467 20.286C73.0774 20.286 71.8814 20.0173 70.8587 19.48C69.8534 18.9427 69.0734 18.1713 68.5187 17.166C67.9641 16.1607 67.6867 14.9733 67.6867 13.604C67.6867 12.5813 67.8427 11.6627 68.1547 10.848C68.4667 10.0333 68.9174 9.34 69.5067 8.768C70.1134 8.17867 70.8327 7.73667 71.6647 7.442C72.4967 7.13 73.4241 6.974 74.4467 6.974C75.8161 6.974 77.0034 7.24267 78.0087 7.78C79.0314 8.31733 79.8201 9.08 80.3747 10.068C80.9467 11.056 81.2327 12.2347 81.2327 13.604C81.2327 14.644 81.0681 15.5713 80.7387 16.386C80.4267 17.2007 79.9761 17.9027 79.3867 18.492C78.7974 19.0813 78.0781 19.532 77.2287 19.844C76.3967 20.1387 75.4694 20.286 74.4467 20.286ZM74.4467 17.348C75.0187 17.348 75.5127 17.2093 75.9287 16.932C76.3447 16.6547 76.6741 16.2473 76.9167 15.71C77.1594 15.1553 77.2807 14.4533 77.2807 13.604C77.2807 12.3387 77.0207 11.4113 76.5007 10.822C75.9807 10.2153 75.2961 9.912 74.4467 9.912C73.8921 9.912 73.3981 10.042 72.9647 10.302C72.5487 10.562 72.2194 10.9693 71.9767 11.524C71.7514 12.0613 71.6387 12.7547 71.6387 13.604C71.6387 14.8693 71.8987 15.814 72.4187 16.438C72.9387 17.0447 73.6147 17.348 74.4467 17.348ZM85.5973 20.208C84.9559 20.208 84.4619 20.026 84.1153 19.662C83.7859 19.2807 83.6213 18.752 83.6213 18.076V9.184C83.6213 8.49067 83.7859 7.962 84.1153 7.598C84.4619 7.21667 84.9559 7.026 85.5973 7.026C86.2213 7.026 86.6979 7.21667 87.0273 7.598C87.3739 7.962 87.5473 8.49067 87.5473 9.184V18.076C87.5473 18.752 87.3826 19.2807 87.0533 19.662C86.7239 20.026 86.2386 20.208 85.5973 20.208ZM85.5973 4.894C84.8693 4.894 84.3059 4.72933 83.9073 4.4C83.5259 4.05333 83.3353 3.568 83.3353 2.944C83.3353 2.30267 83.5259 1.81733 83.9073 1.488C84.3059 1.14133 84.8693 0.967999 85.5973 0.967999C86.3253 0.967999 86.8799 1.14133 87.2613 1.488C87.6426 1.81733 87.8333 2.30267 87.8333 2.944C87.8333 3.568 87.6426 4.05333 87.2613 4.4C86.8799 4.72933 86.3253 4.894 85.5973 4.894ZM92.5543 20.234C91.913 20.234 91.419 20.0607 91.0723 19.714C90.743 19.3673 90.5783 18.8733 90.5783 18.232V9.002C90.5783 8.36067 90.743 7.87533 91.0723 7.546C91.419 7.19933 91.8956 7.026 92.5023 7.026C93.1263 7.026 93.603 7.19933 93.9323 7.546C94.2616 7.87533 94.4263 8.36067 94.4263 9.002V10.484L94.1403 9.626C94.539 8.77667 95.1283 8.12667 95.9083 7.676C96.7056 7.208 97.607 6.974 98.6123 6.974C99.635 6.974 100.476 7.17333 101.134 7.572C101.793 7.95333 102.287 8.54267 102.616 9.34C102.946 10.12 103.11 11.1167 103.11 12.33V18.232C103.11 18.8733 102.937 19.3673 102.59 19.714C102.261 20.0607 101.776 20.234 101.134 20.234C100.51 20.234 100.025 20.0607 99.6783 19.714C99.349 19.3673 99.1843 18.8733 99.1843 18.232V12.512C99.1843 11.628 99.0196 10.9953 98.6903 10.614C98.3783 10.2153 97.893 10.016 97.2343 10.016C96.4023 10.016 95.735 10.276 95.2323 10.796C94.747 11.316 94.5043 12.0093 94.5043 12.876V18.232C94.5043 19.5667 93.8543 20.234 92.5543 20.234Z" fill="white"/>
</svg>
