<svg width="142" height="151" viewBox="0 0 142 151" fill="none" xmlns="http://www.w3.org/2000/svg">
<path d="M140.786 148.17C140.251 148.181 93.1308 149.197 84.2211 149.282L84.1282 149.284C83.6597 149.289 82.9199 149.297 82.2636 149.195C82.5197 149.157 82.7359 149.097 82.9958 149.023C83.1703 148.974 83.3676 148.917 83.6104 148.863C85.0899 148.515 89.4015 146.954 90.2001 144.99C90.4163 144.463 90.3632 143.944 90.0464 143.451C89.4717 142.558 89.1265 140.916 88.9956 139.679C88.9728 139.468 88.9083 139.299 88.8002 139.177C88.9216 138.909 88.9501 138.539 88.8969 138.004C88.6238 135.317 87.6298 127.576 87.6203 127.497C87.3112 125.265 86.9394 123.264 86.6093 121.499C85.4333 115.189 84.6555 111.021 87.7474 104.283C87.7968 104.179 87.8764 103.994 87.9865 103.737C88.4796 102.601 89.5039 100.237 90.6345 98.1428C92.2848 95.0897 93.2029 94.3893 93.6904 94.3666C93.5083 94.6781 93.3337 94.9349 93.1725 95.1275C93.034 95.2956 90.7938 99.2417 89.4053 101.792C89.3218 101.945 89.2384 102.095 89.1587 102.242C88.4038 103.614 87.8043 104.698 88.1287 105.712C88.3734 106.481 89.1341 107.153 90.5245 107.827C91.3382 108.221 94.1892 109.428 96.6988 108.346C98.8916 107.4 110.104 101.594 110.58 101.222C111.064 100.843 118.483 96.9306 119.793 96.4114C120.228 96.2396 120.478 96.0092 120.617 95.7638C120.789 95.8827 121.007 95.9658 121.286 95.9979C122.174 96.1055 124.537 96.5908 125.979 97.2214C126.871 97.6122 127.261 98.3411 127.603 98.9849C127.923 99.5853 128.227 100.152 128.877 100.229C129.261 100.274 129.49 100.303 129.653 100.157C129.856 99.978 129.864 99.608 129.864 98.713C129.864 97.1364 129.534 96.1962 128.646 95.2502C127.72 94.2646 127.447 93.8681 127.314 93.3206C127.053 92.2501 126.379 91.0341 125.465 90.7207C124.955 90.547 124.433 90.6697 123.913 91.0851C123.813 91.1644 123.744 91.238 123.686 91.3041C123.504 91.5043 123.384 91.6364 122.382 91.6704C121.709 91.695 121.085 91.8252 120.668 92.0273C120.028 92.3369 120.142 92.8618 120.264 93.415C120.324 93.6926 120.393 94.0079 120.393 94.3515C120.393 94.4176 120.412 94.4988 120.434 94.6007C120.478 94.7877 120.533 95.0293 120.503 95.2748C120.267 94.9123 120.226 94.3874 120.18 93.8436C120.165 93.6472 120.148 93.4471 120.121 93.2564C120.066 92.8675 119.968 92.6522 119.801 92.554C119.585 92.4275 119.327 92.5257 118.998 92.6522C118.852 92.7089 118.687 92.7712 118.505 92.8221C117.492 93.1072 106.576 95.7185 106.53 95.726C105.658 95.8714 104.415 96.2774 103.099 96.7078C99.9652 97.735 96.0671 99.0113 95.3767 97.3045C95.1301 96.6946 94.9043 95.913 94.7336 95.2993C94.5781 94.7348 94.3581 94.3685 94.0754 94.2042C95.9514 90.7868 98.535 82.3904 97.9469 77.4663C97.7629 75.9218 97.2736 74.8456 96.4939 74.2678C95.5607 73.5768 95.1092 73.8147 94.4282 74.1753C94.1209 74.3377 93.7738 74.5208 93.2958 74.6681C92.8975 74.7927 92.2544 75.008 91.507 75.2572C89.301 75.9954 85.9701 77.1094 83.9954 77.5399C81.2715 78.1365 79.551 78.3405 78.062 78.2479C77.7869 78.231 77.5423 78.2234 77.3241 78.2215C77.8533 77.7287 79.0218 77.7627 80.361 77.8005C80.7404 77.8118 81.133 77.8212 81.5314 77.8212C82.5766 77.8212 83.2025 77.6192 83.8664 77.4059C84.2686 77.2756 84.684 77.1415 85.2208 77.0452C86.1939 76.8696 88.9747 75.8727 91.2092 75.0722C92.2563 74.6983 93.1611 74.3736 93.6221 74.2263C93.7093 74.198 93.7947 74.1734 93.8782 74.147C94.5041 73.9563 95.0447 73.792 95.2648 73.2747C95.5322 72.6497 95.2439 71.5735 94.3296 69.7855C92.4726 66.1471 91.0177 51.6541 90.9702 50.746C90.9683 50.7025 90.9645 50.6478 90.9626 50.5836C90.938 50.053 90.9019 49.4564 90.8261 48.8937C91.1277 49.2185 91.361 49.4488 91.3667 49.4564C91.6493 49.7283 92.0211 50.1059 92.4175 50.5062C93.1232 51.2218 93.9237 52.0318 94.6179 52.6662C95.4829 53.4554 95.9059 53.799 96.3384 53.7782C96.4275 53.7745 96.5129 53.7537 96.6002 53.7178C96.5736 54.018 96.6172 54.2994 96.7614 54.5486C96.8486 54.7015 96.9416 54.8715 97.0402 55.0527C97.3134 55.5549 97.6245 56.1251 97.9716 56.567C98.5482 57.2995 103.435 64.0211 103.48 64.0853C105.608 67.3027 108.812 72.2042 108.915 72.5176C109.051 72.9575 111.563 76.5959 111.72 76.7526C111.857 76.9017 112.606 78.5821 112.576 79.5979C112.549 80.4721 112.856 81.8504 113.38 81.9373C113.792 82.0034 114.006 81.3067 114.076 81.0782C114.184 80.7213 114.239 80.4457 114.275 80.17C114.277 80.1814 114.277 80.1946 114.277 80.2078C114.285 80.3343 114.289 80.4797 114.294 80.6364C114.33 81.6446 114.383 83.1702 114.97 83.899C115.186 84.1671 115.387 84.1312 115.487 84.0897C116.083 83.8291 116.343 81.8542 116.041 79.8585C115.802 78.2763 115.383 77.7646 114.896 77.1717C114.573 76.7809 114.209 76.3353 113.826 75.4951C112.864 73.388 107.972 62.1708 107.919 62.0519C107.862 61.9386 102.24 50.5572 101.891 49.6697C101.689 49.1618 101.435 48.8956 101.111 48.8541C100.388 48.7616 99.5858 49.851 98.7379 51.0046C98.3946 51.471 98.0721 51.9109 97.7648 52.2527C97.6984 52.3282 97.634 52.398 97.5733 52.4679C97.357 52.7096 97.1768 52.9135 97.0175 53.074C97.5031 51.826 98.8707 50.4137 99.2311 50.0549C99.8135 49.4753 100.303 48.6615 100.646 47.7024C101.02 46.662 100.631 45.6273 97.4746 42.8575C96.0671 41.6227 93.1687 40.2349 87.3586 40.6465C87.258 40.6541 87.1803 40.6598 87.131 40.6617C86.2603 40.7013 85.6798 40.7844 85.2967 40.9373C85.2986 40.707 85.31 40.4766 85.3384 40.2444C85.4731 39.1021 85.9928 36.6589 86.9906 35.6034C87.9447 34.5914 88.8002 33.3151 88.8571 32.8166C88.859 32.8053 88.8609 32.7921 88.8609 32.7807C89.043 32.7562 89.2517 32.6826 89.4793 32.5372C90.9133 31.6252 90.8944 30.8945 90.6269 30.4414C90.3367 29.9543 89.6235 29.6371 89.0885 29.5804C89.0904 29.4841 89.0828 29.3746 89.0677 29.2481C88.9557 28.3475 88.9216 28.0756 88.252 27.8358C87.6981 27.6357 85.2493 25.3001 84.591 24.1446C84.3691 23.7575 84.0808 23.3308 83.8171 22.9438C83.7621 22.3566 83.6236 21.8619 83.2386 21.6712C83.1646 21.6353 82.9901 21.5485 82.8876 21.6655C82.7511 21.8222 82.9332 22.1092 83.5383 22.991C83.5478 23.0042 83.5572 23.0193 83.5667 23.0325C83.5876 23.295 83.5971 23.5725 83.6028 23.8406C83.6123 24.2333 83.6217 24.6034 83.673 24.9093C83.6995 25.0698 83.728 25.2321 83.7564 25.3983C83.8797 26.1026 84.0846 27.2769 83.948 27.4374C83.8664 27.428 83.544 27.2354 82.4495 25.404C82.1574 24.9149 81.943 24.5713 81.7723 24.2975C81.4726 23.818 81.3341 23.5989 81.1937 23.2553C81.1463 23.142 81.0818 23.0042 81.0135 22.8588C80.9851 22.7984 80.9509 22.7248 80.913 22.6436C81.1122 22.298 81.1956 22.0866 81.1273 21.9129C81.0666 21.758 80.9035 21.6957 80.7859 21.6618C80.6076 21.6089 80.5128 21.6655 80.4634 21.7222C80.3307 21.877 80.4198 22.1753 80.6228 22.6285C80.5716 22.7153 80.5165 22.8059 80.4596 22.9022C80.3496 23.0854 80.2263 23.2912 80.0879 23.531C79.6705 24.2522 79.4069 24.8205 79.1736 25.3209C79.0427 25.6022 78.9232 25.859 78.7942 26.1044C78.8151 25.927 78.8359 25.7514 78.8568 25.5758C79.2305 22.332 79.5833 19.2695 84.6309 19.0014C87.0494 18.8712 91.0101 21.6712 92.0685 23.1194C93.1194 24.5562 93.5253 25.9005 93.7833 27.0258C93.973 27.8472 93.7055 29.1934 93.1061 30.4508C92.465 31.7914 91.5924 32.7411 90.7673 32.9884L90.6629 33.0205C90.0597 33.1999 89.4907 33.3698 89.208 33.7002C89.1075 33.8192 89.0316 33.9457 88.9652 34.0628C88.8666 34.0798 88.7585 34.0892 88.6523 34.0986C88.3658 34.1251 88.1761 34.1402 88.1439 34.295C88.1135 34.4385 88.2691 34.5367 88.417 34.6198C88.5972 34.7198 88.7585 34.716 88.8951 34.6084C88.988 34.5329 89.0563 34.4234 89.1303 34.2931C89.3958 34.2365 89.6235 34.1496 90.147 33.9551C90.4277 33.8513 90.7768 33.721 91.2643 33.5454C92.8918 32.9582 94.1627 30.1261 94.5458 28.3003C94.8474 26.8559 94.6445 25.4247 93.937 24.0238C94.176 24.1691 94.2613 24.1446 94.3296 24.0898C94.4738 23.9766 94.4358 23.75 93.8307 22.8343C93.2977 22.0299 92.1918 20.8027 91.3022 19.8171C90.8337 19.2979 90.4296 18.8485 90.2267 18.5917C90.054 18.3708 89.9213 18.1688 89.8549 17.9611C90.1128 18.1008 90.3879 18.3009 90.6705 18.5596C91.0784 18.9316 91.6702 19.6944 92.243 20.4326C92.6603 20.9688 93.0568 21.4786 93.347 21.792C93.7814 22.2603 93.9977 22.7531 94.1703 23.1477C94.2632 23.3629 94.3467 23.548 94.4453 23.6971C94.7014 24.0804 95.0561 23.9954 95.316 23.9331C95.536 23.8803 95.6764 23.8557 95.794 23.9464C96.0728 24.1654 96.2094 25.0112 96.2094 26.533C96.2094 27.5451 96.1791 28.3475 96.1544 29.0555C96.052 31.9047 96.0216 32.7656 98.3168 36.8364C99.013 38.0712 99.7926 38.5999 100.443 38.8925C100.768 39.576 101.284 40.503 101.705 40.503C101.718 40.503 101.731 40.5012 101.744 40.4993C102.037 40.4577 102.078 40.0291 102.094 39.8875C102.158 39.2286 101.722 39.0794 101.17 38.8925C101.009 38.8378 100.828 38.7754 100.635 38.6924C100.557 38.5243 100.477 38.3412 100.398 38.1467C99.7793 36.6249 100.402 31.5459 102.101 29.2255C103.423 27.4204 103.941 25.0452 103.558 22.5378C103.201 20.2098 102.095 17.9705 100.523 16.3977C99.2653 15.1422 97.7857 14.3813 96.2454 14.1962C94.5022 13.9885 92.7552 14.5059 91.0537 15.7331C90.1147 16.4091 89.6424 16.9793 89.5665 17.5231C89.5646 17.5325 89.5628 17.54 89.5628 17.5495C89.1492 17.4154 88.8306 17.4589 88.601 17.5514C88.1591 17.7307 87.939 18.148 87.922 18.4595C87.9106 18.6672 87.9864 18.8315 88.1287 18.907C89.8795 19.8435 91.6171 21.1633 92.8216 22.7455C92.5219 22.4642 92.243 22.1904 92.0666 22.0092C91.6569 21.5881 91.1504 21.2407 90.5624 20.8367C90.2267 20.6082 89.8814 20.3703 89.521 20.0965C87.8688 18.8428 85.2227 17.6212 81.998 18.9165C80.8997 19.3583 79.9001 20.1777 79.2532 21.1633C77.8135 23.361 77.7964 26.061 77.7964 26.1762C77.7964 26.7785 77.8989 27.0863 78.1208 27.1467C78.2081 27.1712 78.301 27.1504 78.3977 27.0863C78.3314 27.5148 78.2479 27.934 78.1398 28.3343C77.952 29.031 77.7395 29.8466 77.6011 30.6208C77.2217 32.7524 77.8989 35.4297 80.2813 36.2737C80.4578 36.336 80.6209 36.3927 80.7688 36.4436C80.7176 36.5173 80.6721 36.6041 80.638 36.7118C80.5431 37.0082 80.5412 37.282 80.5412 37.5463C80.5374 38.0334 80.5355 38.5394 79.9456 39.289C79.6554 39.6572 79.3329 39.9328 79.0199 40.201C78.5172 40.6314 78.0411 41.0374 77.9368 41.6944C77.7737 42.714 77.9064 44.402 78.9383 44.8797C79.9873 45.363 83.25 46.0559 84.5512 45.1478C84.9552 44.8664 85.1354 44.4605 85.0899 43.945C85.0539 43.541 85.0027 43.1879 84.9571 42.8783C84.8528 42.174 84.7845 41.7077 85.0197 41.4244C85.0273 41.4131 85.0368 41.4037 85.0482 41.3923C85.0653 41.77 85.1013 42.1419 85.1373 42.5101C85.2511 43.6675 85.3498 44.6644 84.7276 45.2459C84.022 45.9049 82.4191 46.0068 79.68 45.5631C78.4812 45.3687 78.0165 44.1886 77.8457 43.5013C77.5252 42.2156 77.7547 40.9392 78.0658 40.7032C78.4736 40.3954 78.633 40.1689 78.6007 39.9404C78.5647 39.6931 78.3105 39.5024 77.7263 39.2871C76.8594 38.9643 76.296 38.2109 75.6207 37.0176C75.3096 36.4682 74.8714 36.1 74.2967 35.9037C74.291 35.6355 74.0577 35.2239 73.5019 34.4555C72.6597 33.2924 71.1384 31.4496 69.9168 29.9656C68.9722 28.8214 67.9953 27.6376 67.927 27.4733C67.8872 27.3128 67.5002 26.7124 64.7194 22.602C62.1889 18.8617 58.7234 13.7374 58.3193 12.782C58.0082 12.0419 57.5549 10.3162 57.1186 8.64523C56.7809 7.35944 56.4338 6.02834 56.155 5.17492C56.1076 5.02953 55.6789 3.77018 55.1648 3.82682C54.8879 3.85703 54.7247 4.21765 54.6527 4.96345C54.5616 5.90561 54.7968 7.73328 54.8841 8.42055L54.9011 8.55838C54.903 8.56971 54.9049 8.58104 54.9049 8.59237C54.4611 8.38468 53.8484 8.34692 53.3988 8.72831C53.1788 8.91334 53.0574 9.13425 53.0384 9.38159C52.9948 9.91781 53.4424 10.4408 53.6568 10.6919C53.6947 10.7372 53.7327 10.7807 53.7459 10.8014C53.801 10.8845 54.1253 11.4113 54.6602 12.2893C56.2365 14.8759 58.0481 19.3658 59.2924 22.6757C60.4893 25.8628 61.8418 28.5061 63.274 31.3024C64.0631 32.8449 64.8806 34.4366 65.6754 36.1434C65.8689 36.5569 66.2464 36.7665 66.7983 36.7665C67.2232 36.7665 68.0161 36.6872 68.3367 36.6532C68.9741 36.5853 69.6114 36.4682 70.226 36.353C71.182 36.1755 72.1684 35.9924 73.1908 35.9924C73.426 35.9924 73.6442 36.0113 73.8471 36.049C73.739 36.0717 73.593 36.083 73.4431 36.0944C73.187 36.1151 72.8665 36.1397 72.5307 36.2246C71.6714 36.438 69.399 36.8798 67.853 36.8798C67.7449 36.8798 67.6425 36.8779 67.5476 36.8779C66.7339 36.8741 66.364 36.8741 66.1553 37.0818C66.0017 37.2348 65.9732 37.4689 65.9732 37.8446C65.9732 39.1474 66.7206 40.5125 67.5874 42.0909C68.7692 44.2471 70.1084 46.6884 70.1084 49.8491C70.1084 52.5699 73.868 71.7888 74.1355 72.6913C74.2569 73.1067 74.4333 73.9167 74.6211 74.7776C74.7671 75.4498 74.917 76.1446 75.0592 76.728C75.4652 78.4047 75.7023 78.484 76.8518 78.4783C76.645 79.0221 76.7683 79.8132 77.2236 80.929C77.713 82.1223 78.4622 83.8537 79.1242 85.3793C79.7312 86.7821 80.2567 87.9943 80.3041 88.1604C80.3155 88.1963 80.3231 88.2341 80.3326 88.2662C80.3781 88.438 80.4179 88.5871 80.5583 88.5985C80.7328 88.6117 80.839 88.4663 81.4195 87.1182C81.8785 86.0514 83.1285 83.3987 84.132 81.2689C84.4279 80.6421 84.6973 80.0718 84.9154 79.6074C84.9268 79.8 84.9268 79.9642 84.8964 80.036C84.6252 80.6836 84.2591 81.5804 83.8721 82.5283C83.1646 84.2615 82.3622 86.2251 81.7571 87.6129C80.3212 90.917 79.3291 94.5403 78.3712 98.0465C77.9083 99.742 77.4683 101.343 76.9846 102.912C76.5938 104.171 76.2334 105.172 75.9432 105.975C74.7538 109.267 74.4712 110.049 76.6431 115.889C78.0468 119.66 84.5683 137.491 84.6479 138.016C84.6745 138.354 84.775 139.173 85.1373 139.481C85.2493 139.575 85.3782 139.617 85.5167 139.605C86.0801 139.556 86.7668 139.473 87.148 139.409C87.2239 139.396 87.3225 139.367 87.4364 139.333C87.7361 139.245 88.178 139.114 88.4531 139.231C88.1723 139.554 87.5502 139.59 86.5258 139.649L86.4595 139.653C85.4427 139.711 85.2682 139.83 85.236 140.177L85.2322 140.206C85.2265 140.261 85.2189 140.344 85.2075 140.457C85.1734 140.821 85.1108 141.497 84.9875 142.53C84.7921 144.156 83.3296 146.114 81.8539 146.72C81.4574 146.882 81.0154 147.094 80.7973 147.528C80.5564 148.005 80.5374 148.411 80.7385 148.732C80.7878 148.81 80.8466 148.878 80.9149 148.94C80.6968 148.923 80.4502 148.897 80.1637 148.863C79.1717 148.744 75.4728 148.838 71.5538 148.94C67.798 149.036 63.9113 149.136 62.0144 149.061C61.8873 149.055 61.7602 149.05 61.6313 149.042C63.1336 148.281 63.9303 147.528 63.8165 146.939C63.7007 146.336 62.6878 146.031 60.8099 146.031C59.8349 146.031 58.767 145.407 58.1941 145.075L58.1182 145.032C57.5416 144.698 55.6333 142.517 55.3526 141.677C55.2578 141.391 55.0681 141.18 54.7911 141.046C54.6906 140.997 54.5806 140.961 54.463 140.933C54.518 140.589 54.48 140.047 54.4193 139.165L54.4136 139.08C54.279 137.124 54.0286 134.035 53.8085 131.311C53.5866 128.566 53.395 126.194 53.3704 125.601C53.3438 124.961 53.1522 122.85 52.9303 120.405C52.6116 116.901 52.2152 112.541 52.1393 110.676C51.6708 99.219 48.5713 86.3856 45.1607 73.1444C45.1284 73.0217 45.1 72.9065 45.0734 72.797C44.8192 71.785 44.6922 71.2771 43.8898 71.0524C43.8499 71.0411 43.8405 71.0392 41.2133 71.5169C39.5004 71.8284 37.338 72.2268 35.2799 72.6082C32.6375 73.0972 26.3001 74.2773 24.5303 74.6625C23.8057 74.8192 23.0962 74.9872 22.4703 75.1383C21.6243 75.3403 20.8921 75.514 20.3799 75.599C19.8905 75.6801 19.4637 75.75 19.0919 75.801C19.3632 75.1213 20.0878 74.9966 21.7457 74.8777C22.2863 74.8399 24.6687 74.3434 27.1916 73.8185C29.8586 73.2634 32.8841 72.6309 33.2066 72.6648C33.5556 72.7007 35.5682 72.274 38.5975 71.6188C40.5778 71.1902 42.4463 70.7862 42.8617 70.7579C43.5692 70.7088 44.0795 70.4747 44.3811 70.0593C45.0014 69.2002 44.6258 67.7652 44.2938 66.4983C44.2293 66.2472 44.1667 66.0112 44.1155 65.7865C43.3587 62.5258 38.8365 44.8797 37.6472 43.2502C37.6187 43.2125 37.5789 43.1577 37.5258 43.0954C37.7496 43.0463 37.9658 42.9576 38.1347 42.8179C38.275 42.7008 38.7758 42.3081 39.4663 41.7662C41.0122 40.5521 43.3473 38.7188 44.7358 37.5614C45.9991 36.5097 46.2343 35.9905 46.1262 34.8765C46.3121 34.7765 46.5132 34.5537 46.7579 34.2818C46.8679 34.1591 46.9817 34.0325 47.1069 33.9004C48.0269 32.9431 49.0227 32.0954 49.9844 31.2759C52.5282 29.1103 54.9315 27.0655 54.9315 23.6745V13.5656C54.9315 13.0653 54.6337 12.2307 54.1348 11.7002C53.4975 11.0223 52.7994 10.016 52.7577 9.22866C52.7292 8.683 52.8146 8.3016 52.9891 8.18076C53.0745 8.12223 53.1921 8.12601 53.3381 8.1902C53.7194 8.35824 54.1633 8.3488 54.4421 8.16943C54.5995 8.06748 54.6868 7.91832 54.6868 7.75028C54.6868 7.62944 54.6545 7.40853 54.609 7.10077C54.5028 6.37763 54.3435 5.28443 54.4876 4.62737C54.6678 3.81927 54.793 0.299858 54.0457 0.0525174C53.8029 -0.0286707 53.6037 -0.015454 53.4349 0.0902793C53.1333 0.277201 52.9549 0.741672 52.8392 1.64229C52.6761 2.9092 52.6761 4.09304 52.6761 4.66324C52.6761 4.718 52.6723 4.78408 52.6685 4.85772C52.107 4.38381 51.3559 4.12891 50.9594 4.54241C50.4018 5.12583 50.8589 5.69414 51.1624 6.06987C52.0426 7.16497 50.8532 12.2439 50.066 15.6048C49.7606 16.9075 49.4969 18.0328 49.4021 18.6974C48.9032 22.1697 48.4669 22.6549 47.5944 23.6254C47.1448 24.1257 46.5833 24.7488 45.8512 25.9496C45.2935 26.8616 45.2688 27.6074 45.3466 28.0718C45.4073 28.4362 45.4964 30.3923 45.5609 31.8197C45.6046 32.7732 45.6273 33.2735 45.6406 33.3528C45.6634 33.5058 45.6861 33.6512 45.7089 33.789C45.7582 34.1024 45.8018 34.3724 45.8322 34.6141C45.7449 34.4951 45.6254 34.1591 45.5192 33.2528C45.3504 31.8178 45.2195 29.4124 45.1891 27.917C45.1721 27.1014 44.8249 26.7539 44.5366 26.6067C44.0719 26.3688 43.4687 26.4915 43.1121 26.7351C40.9382 28.2248 39.0831 29.9033 37.2868 31.5289C35.1812 33.4359 33.1914 35.239 30.7236 36.7627C30.3063 37.0214 30.0274 37.2461 29.851 37.4519C29.8055 37.3896 29.7619 37.3254 29.7163 37.2631C29.3445 36.7401 28.9917 36.2473 28.7375 35.8376C28.1723 34.9237 28.6294 34.6273 29.4602 34.0892C30.2797 33.5586 31.4008 32.8317 31.9034 31.1211C32.5541 28.9064 31.3514 24.6053 29.8396 22.2414C29.1662 21.186 28.3032 20.5723 27.4135 20.5138C26.6567 20.4647 25.9415 20.8121 25.3459 21.522C24.149 22.9457 23.836 25.6664 23.7032 27.5885C23.6691 28.0737 23.4927 28.3928 23.3106 28.6118C23.2518 28.5382 23.1854 28.4702 23.1171 28.4079C22.9103 28.2172 22.1725 27.63 21.3966 28.102C20.8826 28.4155 20.6815 28.9989 20.8427 29.7031C21.004 30.4112 21.4915 31.0437 21.905 31.0852C21.9297 31.0871 21.9619 31.0909 21.996 31.0928C21.8765 31.3703 21.7267 31.6573 21.4175 31.7725C21.3549 31.797 21.2923 31.8159 21.2335 31.8329C21.169 31.7895 21.1026 31.7461 21.0343 31.7026C20.9167 31.6252 20.7972 31.5459 20.6739 31.4647C19.4751 30.6604 17.4397 28.9687 16.7398 27.883C16.1195 26.9239 15.4936 25.4814 15.4936 24.577C15.4936 21.3993 19.6382 17.0265 22.7662 16.9038C24.7807 16.8226 27.3111 18.4841 27.8232 19.0713C28.011 19.2884 28.2121 19.4414 28.3942 19.5754C28.4492 19.9832 28.6237 20.5459 28.8722 20.561C28.9576 20.5667 29.0733 20.5213 29.1188 20.2702C29.1947 19.8718 28.9329 19.6528 28.637 19.4338C28.6351 19.4168 28.6351 19.3998 28.6332 19.3828C28.5953 18.6257 27.036 17.3682 23.6463 16.2637C22.3451 15.8408 20.71 16.3033 19.0445 17.5703C17.8779 18.4577 16.8119 19.6585 16.0455 20.9518C15.2261 22.3339 14.824 23.6726 14.8809 24.8224C15.0193 27.5885 17.7376 30.3432 20.0233 31.865C20.397 32.1142 20.765 32.1917 21.1861 32.1067C21.7608 32.49 22.2483 32.8487 22.5594 33.3037C22.7263 33.5511 22.9009 33.7342 23.083 33.8834C23.0488 33.9004 23.0166 33.9193 22.9843 33.94C22.5518 34.227 22.6979 34.8161 22.8705 35.4977C23.0678 36.285 23.2897 37.1781 22.7586 37.8899C22.2275 38.6036 21.7305 38.9491 21.3682 39.2021C21.0647 39.4155 20.8427 39.5684 20.8086 39.8233C20.7707 40.0896 20.9433 40.4086 21.4649 41.0525C21.5996 41.2205 22.347 42.0853 23.6539 42.6555C24.7788 43.1464 26.3778 43.0671 27.0664 42.9557C27.6905 42.8556 29.3787 42.376 30.0464 41.9871C30.7141 41.5981 31.0479 41.2658 31.1257 40.909C31.2149 40.5012 30.9645 40.1443 30.6458 39.6931C30.4371 39.3966 30.2 39.0587 30.0179 38.6433C30.0065 38.6168 29.9952 38.5904 29.9838 38.564C29.8851 38.345 29.7979 38.1486 29.8681 37.9183C30.477 38.7792 31.0707 39.6704 31.2433 40.2689C31.6075 41.5358 31.01 41.7813 29.8169 42.2646C29.6386 42.3364 29.4546 42.4119 29.2611 42.495C27.8308 43.1143 24.9798 43.6769 22.9938 42.6876C21.9012 42.1419 21.5408 41.5377 21.2525 41.0487C21.0097 40.639 20.7991 40.2859 20.2699 40.099C18.098 39.3362 13.9988 42.5479 11.7472 44.5322C8.70843 47.2096 5.8138 50.4873 5.29785 51.8373C5.12333 52.2923 5.22956 52.6284 5.46856 52.972C4.44236 53.4629 3.22266 56.3668 2.05419 59.316C1.76017 60.0599 1.52686 60.649 1.39597 60.9001C0.646707 62.3181 1.2575 66.3133 1.68809 68.5677C2.27612 71.6528 3.17524 74.8513 3.73292 75.8501C3.77655 75.9294 3.83725 76.0351 3.90744 76.1654C5.07591 78.2838 6.7205 81.1613 7.53995 81.6786C8.56237 82.3224 9.61324 82.2885 10.666 81.5785C10.8178 81.4747 11.1099 81.3614 11.421 81.2425C12.2404 80.9253 13.259 80.5306 13.3065 79.7981C13.3482 79.1467 12.5781 78.399 10.9467 77.5135C10.9373 77.5078 10.9278 77.5022 10.9164 77.4984C10.9866 77.4719 11.053 77.4455 11.1156 77.4172C11.8155 77.1075 12.1645 76.7129 12.045 76.3598C11.9179 75.9822 11.6125 76.0521 11.3432 76.1144C10.9164 76.2126 10.3322 76.3466 9.5165 75.5348C8.75585 74.7776 7.86811 72.4515 7.25542 69.6099C6.64463 66.774 6.50995 64.3893 6.91398 63.5321C7.54185 62.2029 8.22473 61.2287 8.77103 60.4451C9.98503 58.7099 10.6546 57.7527 8.77292 55.7173C8.61358 55.5455 8.26456 55.2642 7.86053 54.9375C7.30664 54.4919 6.61997 53.9368 6.27853 53.5403C6.21593 53.4648 6.15334 53.395 6.09453 53.327C6.09264 53.3232 6.08884 53.3213 6.08695 53.3175C6.18748 53.3968 6.32785 53.5045 6.50426 53.6385C7.26111 54.2182 8.53012 55.1905 9.54685 56.1402C10.1197 56.6727 10.4573 57.1372 10.7039 57.4751C10.9771 57.849 11.1402 58.0737 11.3982 58.085C11.7605 58.1001 12.1361 57.6809 13.2439 56.4272L13.3672 56.2894C13.5265 56.11 13.8129 55.8306 14.1468 55.5077C14.8183 54.8563 15.6529 54.0464 16.0057 53.495C16.074 53.3893 16.1442 53.2666 16.2144 53.1287C16.2239 53.3534 16.2276 53.563 16.222 53.7461C16.2011 54.5052 16.3528 61.9707 16.4742 67.971C16.5141 69.9573 16.5501 71.7642 16.5767 73.0821C16.5805 73.2823 16.5824 73.4711 16.5862 73.6467C16.6013 74.8815 16.6108 75.5612 17.0243 75.9029C17.3373 76.1635 17.8628 76.1937 18.7467 76.088C18.6955 76.3787 18.6803 76.7299 18.6936 77.1585C18.8757 82.3715 19.5415 101.547 19.5415 101.547C19.5396 101.91 19.3461 137.834 19.3139 138.856C19.3063 139.08 19.2721 139.337 19.2361 139.607C19.1109 140.542 18.9554 141.703 19.9759 142.143C20.8655 142.526 21.4953 142.513 22.1061 142.502C22.3432 142.496 22.567 142.492 22.8079 142.509C22.971 142.521 23.1171 142.545 23.248 142.581C23.0943 142.681 22.8629 142.653 22.5746 142.619C22.4134 142.6 22.2294 142.577 22.0397 142.577H20.1257C20.0498 142.577 19.9835 142.609 19.9398 142.666C19.7995 142.849 19.8981 143.249 20.1181 144.065C20.1864 144.324 20.2585 144.59 20.3249 144.866C20.4463 145.373 20.287 145.8 20.1181 146.253C19.936 146.74 19.7482 147.245 19.8696 147.896C20.0764 149.016 21.537 149.169 22.8269 149.305C23.0792 149.331 23.3201 149.357 23.5477 149.388C24.9514 149.582 25.6779 149.743 26.9564 150.252C28.3582 150.809 29.2763 150.637 29.9326 149.69C30.1052 149.44 30.1583 149.221 30.0995 149.018C29.9629 148.555 29.2706 148.27 28.1229 147.796C27.7758 147.652 27.3832 147.49 26.9583 147.303C25.3364 146.588 25.0348 145.394 24.7693 144.339C24.572 143.557 24.3842 142.809 23.6539 142.456C23.7336 142.269 23.7772 142.015 23.7905 141.677C23.855 140.183 27.0019 120.024 27.0341 119.818C27.055 119.652 29.2004 103.295 31.5677 97.6897C32.7134 94.9746 33.7472 92.2217 34.4035 90.1335C34.4377 90.0221 34.4718 89.9145 34.504 89.8087C34.5609 89.99 34.6216 90.1713 34.6823 90.3487C35.8337 93.6926 37.2849 96.9552 38.6866 100.112C40.2933 103.726 41.955 107.464 43.1898 111.365C45.2024 117.722 49.6544 135.627 50.1039 140.325C50.1248 140.538 50.2291 141.256 50.7223 141.567C50.9575 141.714 51.2402 141.737 51.5418 141.628C52.2057 141.39 53.3021 141.057 54.1177 141.123C54.021 141.242 53.8351 141.276 53.4216 141.335C52.9568 141.403 52.2531 141.505 51.2459 141.879C51.0714 141.943 50.9537 142.056 50.893 142.213C50.7185 142.668 51.1074 143.399 51.4507 144.044C51.5626 144.254 51.667 144.454 51.7409 144.62C51.9913 145.188 51.9837 145.228 51.8718 145.725C51.832 145.898 51.7846 146.114 51.7315 146.419C51.6195 147.065 51.5589 147.547 51.8225 147.864C52.0426 148.13 52.4637 148.249 53.2338 148.266C55.0131 148.304 56.597 148.568 58.1296 148.823C58.9927 148.967 59.8254 149.104 60.6582 149.199C60.4761 149.278 60.2864 149.355 60.0853 149.437C56.781 150.753 50.6635 150.724 46.1964 150.702C45.3845 150.698 44.6201 150.694 43.9334 150.698C29.6765 150.792 10.2259 150.709 10.0324 150.709L10.0306 150.966C10.1576 150.968 18.0847 151 27.5084 151C32.8879 151 38.7568 150.989 43.9391 150.955C44.6239 150.949 45.3902 150.953 46.2002 150.958C50.6882 150.979 56.8341 151.009 60.1858 149.675C60.5387 149.535 60.8687 149.391 61.176 149.25C61.4511 149.274 61.728 149.291 62.0087 149.303C63.9151 149.378 67.8037 149.278 71.5671 149.182C75.4728 149.082 79.1641 148.987 80.1372 149.102C80.6626 149.165 81.0629 149.199 81.3891 149.21C82.1801 149.539 83.3884 149.527 84.1263 149.52L84.2193 149.518C93.1289 149.433 140.249 148.417 140.786 148.406V148.17ZM120.782 92.2576C121.167 92.0726 121.755 91.9498 122.392 91.9291C123.45 91.8913 123.636 91.7422 123.877 91.4778C123.932 91.4174 123.991 91.3532 124.075 91.2871C124.52 90.9303 124.962 90.8227 125.383 90.9661C126.201 91.2437 126.827 92.4124 127.064 93.381C127.22 94.0211 127.565 94.4723 128.456 95.4258C129.304 96.3321 129.606 97.1912 129.606 98.7149C129.606 99.4229 129.6 99.8629 129.481 99.9686C129.403 100.037 129.194 100.012 128.906 99.9761C128.388 99.9157 128.141 99.4512 127.828 98.8659C127.483 98.2183 127.053 97.414 126.08 96.9873C124.615 96.3453 122.214 95.8544 121.313 95.7449C121.058 95.7128 120.865 95.6335 120.717 95.5165C120.823 95.1502 120.738 94.782 120.685 94.546C120.666 94.4648 120.649 94.3893 120.649 94.3515C120.649 93.9814 120.577 93.6529 120.514 93.3621C120.383 92.7504 120.343 92.471 120.782 92.2576ZM83.157 21.911C83.3144 21.9997 83.415 22.1885 83.4795 22.4321C83.3429 22.2282 83.2215 22.0356 83.157 21.911ZM88.7452 34.4026C88.7167 34.4253 88.675 34.4593 88.5536 34.3913C88.5384 34.3818 88.5252 34.3762 88.5119 34.3667C88.5688 34.3592 88.6314 34.3535 88.6864 34.3497C88.7243 34.346 88.7642 34.3422 88.8059 34.3384C88.785 34.3667 88.7642 34.3875 88.7452 34.4026ZM101.096 39.1323C101.688 39.3343 101.889 39.4249 101.845 39.8592C101.815 40.1632 101.743 40.2387 101.718 40.2425C101.581 40.2614 101.223 39.8441 100.809 39.0322C100.91 39.07 101.007 39.1021 101.096 39.1323ZM28.8779 20.2249C28.876 20.2344 28.8741 20.24 28.8722 20.2476C28.821 20.1626 28.7603 20.004 28.7129 19.8171C28.8513 19.9455 28.9083 20.0569 28.8779 20.2249ZM20.1788 31.6554C17.9424 30.1676 15.2849 27.4846 15.1502 24.8149C15.0421 22.6492 16.7891 19.6245 19.2133 17.7798C20.4311 16.8528 21.6224 16.3713 22.6599 16.3713C22.9824 16.3713 23.2897 16.4166 23.578 16.511C26.6662 17.5174 28.0395 18.5861 28.3297 19.1921C28.2273 19.1091 28.1267 19.0146 28.03 18.9033C27.5482 18.35 24.9666 16.562 22.77 16.647C21.2126 16.7074 19.3366 17.7534 17.7527 19.447C16.184 21.1218 15.2489 23.0401 15.2489 24.577C15.2489 25.5758 15.9166 27.0617 16.5368 28.0209C17.2899 29.1877 19.3746 30.8926 20.5449 31.6762C20.6512 31.748 20.7555 31.8159 20.8579 31.8839C20.6227 31.882 20.4046 31.8046 20.1788 31.6554ZM23.2271 29.0801C23.2461 29.0631 23.2669 29.0442 23.2878 29.0253C23.3163 29.0857 23.3277 29.1329 23.3258 29.1575C23.3163 29.1594 23.2935 29.1613 23.2575 29.1518C23.2214 29.1443 23.193 29.1386 23.1702 29.1329C23.1873 29.116 23.2081 29.0971 23.2271 29.0801ZM30.4466 39.8422C30.7274 40.2425 30.9512 40.5597 30.8848 40.858C30.8241 41.1337 30.5206 41.4244 29.9269 41.77C29.2819 42.1457 27.643 42.6083 27.036 42.7065C26.374 42.8122 24.8376 42.8915 23.7677 42.4251C22.5158 41.8776 21.8045 41.0544 21.6755 40.8958C21.2221 40.3388 21.0495 40.0405 21.0742 39.8649C21.0931 39.7214 21.2676 39.6005 21.5275 39.4193C21.8822 39.1719 22.419 38.7962 22.9767 38.0485C23.5799 37.2385 23.3314 36.2416 23.1304 35.4411C22.9597 34.7614 22.8686 34.3365 23.138 34.1591C23.1968 34.1194 23.2669 34.0911 23.3447 34.0703C23.5382 34.1949 23.7374 34.2931 23.9441 34.3932C23.9953 34.4177 24.0447 34.4423 24.0959 34.4687C24.5075 34.6745 24.9609 34.6745 25.0842 34.4706C25.1202 34.4102 25.1771 34.2516 24.921 34.0684C24.6555 33.8777 23.9422 33.7002 23.3978 33.7965C23.1797 33.6455 22.9786 33.4529 22.7851 33.1678C22.4835 32.7222 22.0397 32.3748 21.5199 32.0198L21.5237 32.018C21.9695 31.8499 22.1554 31.4251 22.2882 31.1041C22.5556 31.0985 22.861 31.0512 22.916 30.8662C22.954 30.7416 22.8724 30.6264 22.6732 30.5226C22.5765 30.4716 22.4873 30.4622 22.402 30.4924C22.2711 30.5396 22.1914 30.6736 22.1155 30.8417C22.0624 30.8398 22.0036 30.836 21.9429 30.8303C21.6755 30.8039 21.2525 30.2809 21.1064 29.6465C21.0267 29.2991 20.9774 28.6647 21.5427 28.3211C22.0985 27.9831 22.6505 28.3475 22.8629 28.5174C22.9824 28.6137 23.0735 28.7119 23.1455 28.8006C23.1114 28.8327 23.0811 28.8611 23.0507 28.8894C22.9217 29.0064 22.8288 29.0914 22.8648 29.2122C22.899 29.335 23.045 29.3727 23.2044 29.4048C23.4301 29.4483 23.5192 29.3463 23.5515 29.2821C23.6122 29.1613 23.5704 28.997 23.4756 28.8309C23.6956 28.5816 23.9328 28.2021 23.9745 27.6074C24.0485 26.5198 24.2742 23.2119 25.5565 21.6882C26.0971 21.0443 26.7382 20.729 27.4097 20.7725C28.2159 20.8253 29.0069 21.3974 29.6348 22.3811C31.0859 24.6525 32.2885 28.9328 31.6663 31.0512C31.1902 32.6693 30.1583 33.3377 29.3294 33.8758C28.4928 34.4177 27.8308 34.8463 28.527 35.9735C28.785 36.3908 29.1397 36.8873 29.5153 37.4122C29.5779 37.4991 29.6404 37.5878 29.703 37.6766C29.5096 38.0278 29.6044 38.3317 29.7581 38.6735C29.7694 38.698 29.7808 38.7245 29.7922 38.7509C29.9876 39.1871 30.2323 39.5345 30.4466 39.8422ZM23.7867 34.025C24.1793 34.0363 24.6005 34.1534 24.7712 34.2742C24.8129 34.3044 24.8357 34.3271 24.847 34.3422C24.7655 34.3781 24.5037 34.3818 24.2116 34.2365C24.1604 34.21 24.1092 34.1855 24.0579 34.1609C23.965 34.1137 23.8739 34.0703 23.7867 34.025ZM22.4058 30.8379C22.4361 30.7831 22.4646 30.7416 22.4911 30.7322C22.4949 30.7303 22.5006 30.7303 22.5006 30.7303C22.5177 30.7303 22.5404 30.7397 22.5537 30.7473C22.5898 30.7661 22.6144 30.7831 22.6334 30.7964C22.586 30.8134 22.5101 30.8303 22.4058 30.8379ZM52.8848 5.45624C53.0631 5.71302 53.1352 5.98113 52.9796 6.16617C52.9265 6.22847 52.8905 6.26057 52.8677 6.27757C52.8279 6.1454 52.8563 5.75834 52.8848 5.45624ZM45.8322 31.8103C45.7677 30.3753 45.6785 28.4098 45.6159 28.0322C45.5154 27.4356 45.6823 26.7445 46.0845 26.0856C46.8072 24.9036 47.3573 24.29 47.8011 23.7991C48.7078 22.7908 49.1631 22.2848 49.6715 18.7371C49.7644 18.0838 50.0281 16.9642 50.3316 15.6652C51.1776 12.0514 52.3366 7.10455 51.3786 5.91127C51.0163 5.46002 50.7887 5.11261 51.1624 4.72177C51.2478 4.63303 51.3654 4.59527 51.5019 4.59527C51.8187 4.59527 52.236 4.80674 52.5623 5.09751C52.5945 5.12583 52.623 5.15415 52.6533 5.18436C52.6514 5.20324 52.6496 5.22212 52.6477 5.24289C52.5661 6.07365 52.5509 6.44749 52.7691 6.53812C52.9455 6.61176 53.1143 6.40973 53.1788 6.33421C53.4443 6.0189 53.34 5.54687 52.9227 5.09184C52.9379 4.92758 52.9512 4.77842 52.9512 4.66891C52.9512 4.10626 52.9512 2.93186 53.1124 1.68194C53.2148 0.887055 53.3666 0.452793 53.5885 0.313074C53.6909 0.248879 53.8142 0.245103 53.9812 0.301746C54.0969 0.339508 54.3093 0.764329 54.37 2.11243C54.4099 3.03193 54.3605 4.09115 54.2543 4.57639C54.0988 5.27876 54.2619 6.40029 54.37 7.14231C54.4099 7.41609 54.444 7.6521 54.444 7.75405C54.444 7.83524 54.4023 7.90321 54.3169 7.95797C54.1481 8.06559 53.8085 8.11279 53.4576 7.95986C53.1655 7.83147 52.9701 7.89755 52.8563 7.97307C52.5945 8.15244 52.4788 8.58104 52.513 9.24565C52.5699 10.3219 53.634 11.5321 53.9584 11.8777C54.408 12.3553 54.6849 13.1257 54.6849 13.5675V23.6782C54.6849 26.9484 52.4352 28.8648 49.8289 31.0833C48.8615 31.9066 47.8599 32.76 46.9305 33.7248C46.8015 33.8588 46.682 33.9929 46.5739 34.1119C46.4126 34.2912 46.2381 34.4838 46.1034 34.5933C46.0712 34.3441 46.0276 34.0684 45.9763 33.7531C45.9555 33.6172 45.9327 33.4718 45.9081 33.3189C45.8967 33.2471 45.8663 32.5485 45.8322 31.8103ZM7.71447 55.1471C8.11091 55.4662 8.45425 55.7419 8.60031 55.9005C10.3416 57.7848 9.78965 58.574 8.57565 60.3054C8.02176 61.0965 7.33319 62.0802 6.69584 63.4302C6.178 64.5272 6.52323 67.3744 7.01831 69.6703C7.49063 71.8624 8.38406 74.7625 9.34957 75.7217C10.2677 76.6355 10.9866 76.4694 11.4172 76.3712C11.7283 76.2994 11.77 76.307 11.8155 76.4467C11.8819 76.6487 11.5594 76.9546 11.0264 77.1887C10.886 77.251 10.7457 77.302 10.6148 77.3398C9.68153 76.881 9.52978 77.0358 9.47477 77.0905C9.3913 77.1755 9.3951 77.3039 9.48804 77.47C9.64549 77.7495 10.1254 77.7306 10.5844 77.6135C10.6641 77.6532 10.7476 77.6966 10.8367 77.7457C12.3485 78.567 13.0978 79.2543 13.0637 79.7886C13.0257 80.3569 12.0526 80.7346 11.3413 81.0083C11.0036 81.1386 10.7115 81.2519 10.5351 81.3708C9.5753 82.0185 8.61928 82.0487 7.6917 81.4653C6.83432 80.9253 4.81225 77.2529 4.14644 76.0464C4.07436 75.9161 4.01556 75.8085 3.97193 75.7292C3.42563 74.7512 2.53979 71.5849 1.95555 68.5224C1.23284 64.7405 1.11713 62.0084 1.63877 61.0229C1.77725 60.7604 2.01246 60.1657 2.31027 59.4142C3.12403 57.3562 4.62825 53.5536 5.64308 53.1854C5.72654 53.2873 5.81759 53.3931 5.91433 53.5045C5.97313 53.5706 6.03573 53.6404 6.09643 53.7141C6.45304 54.1332 7.12264 54.6713 7.71447 55.1471ZM10.1899 77.4323C9.9395 77.4606 9.76119 77.4285 9.71377 77.3473C9.6967 77.3171 9.68722 77.2945 9.68153 77.2794C9.7593 77.2794 9.92812 77.3209 10.1899 77.4323ZM16.4496 50.6346C16.6544 50.8215 16.6032 51.3709 16.4287 51.9619C16.4003 51.4162 16.3813 50.8064 16.4496 50.6346ZM17.2026 75.7217C16.8821 75.4536 16.8726 74.8173 16.8574 73.658C16.8536 73.4805 16.8517 73.2917 16.8479 73.0916C16.8214 71.7737 16.7853 69.9649 16.7455 67.9805C16.6241 61.982 16.4723 54.5184 16.4932 53.7669C16.5027 53.4441 16.4837 53.0419 16.4629 52.6303C16.8043 51.7957 17.0205 50.7875 16.6127 50.4344C16.4894 50.3287 16.3908 50.3532 16.3434 50.3778C16.11 50.4911 16.1157 51.0122 16.1897 52.3584C16.1954 52.4358 16.1992 52.5113 16.203 52.5887C16.0816 52.8776 15.9431 53.1514 15.8027 53.3704C15.4651 53.8953 14.6419 54.6959 13.9798 55.3378C13.6441 55.6644 13.3539 55.9458 13.187 56.1327L13.0637 56.2705C12.1304 57.3241 11.6638 57.8527 11.4229 57.8414C11.2901 57.8358 11.144 57.6375 10.924 57.3354C10.6717 56.9899 10.3246 56.5141 9.73464 55.9647C8.70843 55.0074 7.43373 54.0312 6.67308 53.4459C6.43977 53.2666 6.25387 53.125 6.16282 53.0494C6.03763 52.9456 5.89536 52.8984 5.74551 52.9059C5.50081 52.5812 5.40597 52.315 5.55013 51.9355C5.9921 50.7818 8.66101 47.6117 11.9312 44.7305C15.6889 41.4188 18.7012 39.8233 20.1978 40.3482C20.6379 40.5031 20.8067 40.79 21.0419 41.1865C21.3473 41.702 21.7286 42.3458 22.8895 42.9236C24.9552 43.9526 27.901 43.3748 29.3749 42.7367C29.5665 42.6536 29.7486 42.58 29.925 42.5082C31.0878 42.0343 31.9281 41.6925 31.5013 40.2047C31.3097 39.5382 30.6818 38.6093 30.016 37.6709C30.164 37.4783 30.4296 37.2574 30.8715 36.9836C33.3583 35.4467 35.3557 33.6379 37.4726 31.7215C39.2614 30.1034 41.109 28.4287 43.2695 26.9503C43.5142 26.7823 44.0358 26.6388 44.4285 26.8408C44.7567 27.0088 44.9312 27.3751 44.9407 27.9283C44.971 29.4294 45.1038 31.8443 45.2726 33.2886C45.4016 34.3913 45.5533 34.835 45.8322 34.9218C45.8474 34.9275 45.8625 34.9313 45.8777 34.9332C45.9707 35.9697 45.7335 36.4021 44.5746 37.3688C43.1879 38.5224 40.8548 40.3558 39.3126 41.5698C38.6203 42.1136 38.1195 42.5063 37.9753 42.6253C37.8103 42.7612 37.5713 42.8424 37.3304 42.8726C37.1331 42.6687 36.8846 42.4667 36.6627 42.461C36.5584 42.4572 36.4654 42.4988 36.4009 42.5781C36.3004 42.7008 36.3042 42.8424 36.4123 42.95C36.5508 43.086 36.877 43.1596 37.2299 43.1407C37.2981 43.2181 37.3702 43.3069 37.4442 43.4069C38.5899 44.9778 43.1424 62.7165 43.8708 65.8507C43.9239 66.0773 43.9846 66.3171 44.051 66.5682C44.3678 67.7803 44.7263 69.153 44.1781 69.9139C43.922 70.2689 43.4876 70.4633 42.8522 70.5068C42.4178 70.537 40.5399 70.9429 38.5501 71.3715C36.3326 71.8511 33.5746 72.4458 33.2369 72.4137C32.8974 72.3797 30.6041 72.8499 27.1442 73.5711C24.7408 74.0715 22.254 74.5907 21.7324 74.6266C19.974 74.7512 19.1128 74.872 18.8207 75.8425C17.9728 75.9445 17.4606 75.935 17.2026 75.7217ZM36.9643 42.8745C36.9036 42.8688 36.8448 42.8594 36.7917 42.8462C36.6399 42.8103 36.5906 42.7631 36.5868 42.7593C36.5868 42.7593 36.5887 42.7518 36.6001 42.7367C36.6115 42.7216 36.6247 42.7121 36.6532 42.7121H36.657C36.7253 42.714 36.8334 42.7688 36.9643 42.8745ZM24.5322 144.418C24.7977 145.474 25.1297 146.79 26.8672 147.554C27.2921 147.741 27.6886 147.905 28.0357 148.049C29.0372 148.462 29.76 148.761 29.8643 149.106C29.9003 149.231 29.8586 149.378 29.7334 149.559C29.1416 150.413 28.3695 150.549 27.0645 150.03C25.7613 149.51 25.0216 149.348 23.5951 149.15C23.3637 149.118 23.1228 149.091 22.8667 149.065C21.6091 148.933 20.3097 148.795 20.1371 147.864C20.029 147.28 20.2035 146.812 20.3723 146.357C20.5468 145.889 20.7251 145.406 20.5886 144.822C20.5222 144.543 20.4501 144.273 20.3799 144.012C20.2604 143.576 20.1011 142.981 20.1523 142.847H22.0548C22.2294 142.847 22.3963 142.866 22.5575 142.887C22.9009 142.928 23.2252 142.968 23.4642 142.766C23.4908 142.745 23.5154 142.721 23.5382 142.692C24.1737 142.994 24.3368 143.644 24.5322 144.418ZM34.6861 85.9514C34.7374 85.9325 34.7734 85.9249 34.8018 85.9249C34.8531 85.9249 34.8739 85.9457 34.8834 85.957C34.9972 86.0741 35.1566 86.5952 34.5154 88.9025C34.0772 87.2202 34.1304 86.1685 34.6861 85.9514ZM51.4659 141.405C51.2402 141.486 51.041 141.473 50.8722 141.369C50.5592 141.171 50.4093 140.697 50.3714 140.319C49.8839 135.221 45.3162 117.209 43.4459 111.307C42.2054 107.391 40.5418 103.647 38.9332 100.025C37.5333 96.874 36.0841 93.6151 34.9365 90.2827C34.8284 89.9673 34.7317 89.6653 34.6482 89.3801C35.5549 86.2761 35.1945 85.9061 35.0693 85.7795C34.9877 85.6965 34.8398 85.6191 34.5913 85.7135C33.6827 86.0684 33.9046 87.7413 34.3788 89.3801C34.3144 89.5973 34.2442 89.8295 34.1683 90.075C33.5139 92.1556 32.4839 94.9009 31.3401 97.6085C28.9614 103.244 26.8103 119.637 26.7913 119.799C26.6624 120.63 23.6103 140.176 23.5458 141.684C23.5325 141.992 23.4927 142.22 23.4263 142.379C23.2556 142.324 23.0621 142.288 22.8402 142.271C22.7036 142.262 22.5689 142.258 22.438 142.258C22.328 142.258 22.2199 142.26 22.1136 142.262C21.5313 142.273 20.93 142.286 20.0916 141.926C19.2513 141.563 19.3803 140.597 19.5054 139.66C19.5434 139.383 19.5775 139.12 19.5851 138.882C19.6174 137.859 19.8089 101.93 19.8108 101.562C19.8108 101.562 19.145 82.3829 18.9648 77.168C18.9497 76.7129 18.9591 76.3561 19.0198 76.0729C19.4182 76.0181 19.8848 75.9426 20.4292 75.8538C20.9509 75.767 21.6869 75.5914 22.5367 75.3894C23.1626 75.2402 23.8702 75.0703 24.591 74.9136C27.3206 74.3226 43.1215 71.4168 43.8499 71.3092C44.4873 71.4942 44.5821 71.8719 44.8306 72.8612C44.8572 72.9707 44.8875 73.0878 44.9179 73.2105C48.3228 86.4385 51.4204 99.2587 51.887 110.689C51.9648 112.56 52.3612 116.926 52.6799 120.432C52.9018 122.873 53.0934 124.982 53.12 125.613C53.1465 126.213 53.3381 128.586 53.56 131.334C53.7801 134.058 54.0305 137.145 54.1652 139.101L54.1727 139.186C54.2315 140.051 54.2695 140.589 54.2221 140.893C53.3969 140.802 52.3119 141.101 51.4659 141.405ZM61.1362 149.004C60.1612 148.916 59.1957 148.755 58.1846 148.585C56.6425 148.328 55.0491 148.062 53.2509 148.026C52.5737 148.011 52.1981 147.917 52.0331 147.717C51.8567 147.503 51.8813 147.133 51.9951 146.48C52.0482 146.18 52.0957 145.968 52.1336 145.796C52.2569 145.247 52.2607 145.153 51.9856 144.531C51.9079 144.356 51.8016 144.154 51.6878 143.939C51.3862 143.37 51.0107 142.666 51.1453 142.319C51.1776 142.232 51.2421 142.173 51.3464 142.135C52.3271 141.771 53.0138 141.673 53.469 141.607C53.9982 141.529 54.2733 141.461 54.4023 141.18C54.5047 141.203 54.6014 141.235 54.6887 141.276C54.9049 141.38 55.0453 141.537 55.1174 141.758C55.419 142.656 57.3823 144.894 57.9968 145.253L58.0727 145.296C58.6683 145.642 59.7742 146.287 60.8194 146.287C63.1829 146.287 63.5338 146.776 63.5737 146.988C63.6571 147.415 62.9173 148.168 61.1362 149.004ZM94.487 95.3692C94.6578 95.9885 94.8873 96.7777 95.1396 97.4008C95.9211 99.3304 99.7793 98.0692 103.182 96.9533C104.489 96.5247 105.722 96.1206 106.576 95.979C106.917 95.9224 117.91 93.2564 118.577 93.0695C118.771 93.0147 118.942 92.9486 119.093 92.892C119.357 92.7919 119.564 92.7126 119.672 92.7749C119.761 92.8278 119.827 93.0015 119.867 93.2923C119.894 93.4735 119.907 93.6642 119.924 93.8663C119.975 94.4856 120.028 95.1596 120.414 95.5863C120.305 95.8072 120.091 96.0149 119.695 96.1716C118.376 96.6946 110.906 100.637 110.417 101.02C109.971 101.37 98.664 107.219 96.5945 108.112C94.1854 109.149 91.4236 107.98 90.6345 107.596C89.3143 106.955 88.5953 106.331 88.3734 105.637C88.0832 104.727 88.6579 103.684 89.3844 102.366C89.466 102.219 89.5476 102.07 89.631 101.915C91.1315 99.1586 93.2465 95.4523 93.3698 95.2918C93.55 95.0765 93.7454 94.7858 93.9502 94.4289C94.1703 94.5573 94.3486 94.8707 94.487 95.3692ZM114.133 79.0485C113.926 78.6596 113.871 78.4896 114.059 78.3254C114.095 78.2933 114.12 78.28 114.135 78.2725C114.19 78.3763 114.161 78.7634 114.133 79.0485ZM97.7762 52.6359C97.8369 52.568 97.9014 52.4981 97.9678 52.4226C98.2827 52.0714 98.6109 51.6258 98.9561 51.1557C99.6883 50.1606 100.515 49.0353 101.088 49.109C101.308 49.1373 101.5 49.3582 101.661 49.7641C102.016 50.6629 107.467 61.6988 107.697 62.1614C107.746 62.2747 112.638 73.4937 113.602 75.6027C113.998 76.4731 114.376 76.9301 114.706 77.3341C115.188 77.9213 115.569 78.3839 115.797 79.8962C116.108 81.9543 115.772 83.6894 115.394 83.8518C115.336 83.8782 115.264 83.8405 115.18 83.7385C114.647 83.0758 114.596 81.6031 114.56 80.6269C114.554 80.4683 114.548 80.3211 114.543 80.1927C114.529 79.9227 114.446 79.681 114.347 79.4639C114.353 79.4167 114.359 79.3657 114.364 79.3128C114.446 78.618 114.48 78.1535 114.252 78.0346C114.148 77.9798 114.027 78.0138 113.89 78.1328C113.52 78.4556 113.733 78.8484 113.938 79.2298C113.987 79.3185 114.036 79.411 114.084 79.5092C114.08 79.5451 114.078 79.5791 114.074 79.6093C114.042 80.0907 114.008 80.4476 113.835 81.0027C113.674 81.5276 113.515 81.6975 113.427 81.6824C113.164 81.639 112.809 80.5382 112.839 79.6055C112.872 78.5293 112.092 76.7526 111.91 76.5713C111.751 76.4033 109.286 72.8291 109.167 72.4402C109.036 72.0153 104.246 64.7688 103.698 63.9381C103.649 63.8701 98.7588 57.1447 98.1803 56.4065C97.8464 55.9816 97.5429 55.4228 97.2736 54.9281C97.1749 54.7468 97.0801 54.5731 96.9909 54.4183C96.8468 54.1672 96.824 53.8689 96.8866 53.5441C97.1332 53.3553 97.4063 53.0494 97.7762 52.6359ZM80.6664 21.894C80.6759 21.894 80.6949 21.8978 80.7214 21.9053C80.7897 21.9242 80.8751 21.9582 80.894 22.0035C80.9168 22.062 80.8732 22.181 80.7897 22.3415C80.71 22.147 80.6512 21.9676 80.6664 21.894ZM89.8302 17.5589C89.8966 17.0945 90.3481 16.5658 91.2149 15.9427C94.3068 13.7129 97.7212 13.9508 100.35 16.579C103.323 19.549 104.762 25.1717 101.904 29.0725C101.109 30.1582 100.462 31.9462 100.132 33.9778C99.8381 35.7904 99.8533 37.4632 100.168 38.243C100.193 38.3034 100.233 38.3997 100.284 38.5187C99.7319 38.2185 99.1135 37.7068 98.5501 36.7099C96.2891 32.7033 96.3194 31.8594 96.4219 29.065C96.4465 28.3551 96.4769 27.5507 96.4769 26.5349C96.4769 24.4316 96.2189 23.9445 95.9647 23.7462C95.8528 23.6575 95.7352 23.631 95.6157 23.631C95.4962 23.631 95.3805 23.6594 95.2685 23.6858C94.9878 23.7538 94.8228 23.7802 94.6729 23.5574C94.5857 23.4271 94.5079 23.2515 94.4188 23.0476C94.2386 22.6341 94.0128 22.1206 93.5481 21.6202C93.2654 21.3143 92.8728 20.8102 92.4593 20.2778C91.8788 19.532 91.2794 18.7616 90.8583 18.3746C90.4695 18.0177 90.1261 17.7912 89.8245 17.6533C89.8245 17.6175 89.8264 17.5891 89.8302 17.5589ZM88.2596 18.6805C88.2084 18.654 88.1818 18.5766 88.1875 18.4728C88.2008 18.2311 88.3829 17.9196 88.7054 17.7874C88.952 17.6854 89.246 17.7005 89.5722 17.8233C89.6159 18.1688 89.815 18.4709 90.0332 18.7465C90.2399 19.0109 90.6478 19.4621 91.1201 19.9851C92.004 20.965 93.1042 22.1848 93.624 22.974C93.9483 23.4649 94.0735 23.7103 94.1209 23.8293C94.0109 23.767 93.8402 23.6367 93.6429 23.4706C93.4589 23.1628 93.2484 22.8588 93.0151 22.5548C91.894 21.0972 90.2039 19.7208 88.2596 18.6805ZM78.1967 26.8974C78.1948 26.8956 78.0639 26.8314 78.0639 26.1743C78.0639 26.0629 78.0791 23.4347 79.4771 21.3011C80.0954 20.359 81.0515 19.5754 82.1023 19.1525C85.2151 17.9007 87.774 19.0864 89.3731 20.2986C89.7392 20.5761 90.0882 20.8159 90.4258 21.0462C91.0025 21.4408 91.4995 21.7826 91.8902 22.1848C91.949 22.2452 92.4631 22.7606 92.9904 23.2402C93.1573 23.3912 93.3034 23.5196 93.4286 23.6254C94.2575 25.0207 94.6502 26.584 94.3011 28.2418C93.9407 29.958 92.7021 32.7505 91.1846 33.2981C90.6971 33.4737 90.3462 33.604 90.0654 33.7078C89.7126 33.84 89.502 33.9174 89.3256 33.9721C89.3522 33.9344 89.3806 33.8947 89.411 33.8607C89.6424 33.587 90.202 33.4208 90.7426 33.2584L90.8469 33.2282C91.7536 32.9563 92.6641 31.9821 93.3451 30.5547C93.9787 29.2274 94.2461 27.8509 94.0413 26.9616C93.7776 25.8118 93.3622 24.4354 92.2829 22.9608C91.1941 21.4692 87.3491 18.7333 84.8016 18.7333C84.7409 18.7333 84.6821 18.7352 84.6233 18.739C79.3576 19.0184 78.9763 22.3339 78.6064 25.5399C78.5647 25.9081 78.521 26.2819 78.4717 26.652C78.2839 26.9069 78.1967 26.8974 78.1967 26.8974ZM85.0899 40.2104C85.0558 40.4974 85.0444 40.7825 85.0482 41.0657C84.9609 41.1223 84.8907 41.1865 84.83 41.2583C84.5209 41.6284 84.6024 42.1684 84.7105 42.9123C84.7561 43.2219 84.8073 43.5693 84.8433 43.9639C84.8794 44.3887 84.739 44.7059 84.4127 44.9344C83.2424 45.752 80.1182 45.1345 79.056 44.6436C78.1606 44.2301 78.0563 42.6366 78.2024 41.7322C78.2915 41.1677 78.7126 40.8089 79.1982 40.3935C79.5055 40.1292 79.8526 39.8328 80.158 39.4438C80.803 38.6244 80.8068 38.0504 80.8087 37.5444C80.8106 37.2876 80.8125 37.0459 80.894 36.7873C80.9282 36.6797 80.9775 36.5928 81.0401 36.5248C82.3793 36.9515 82.4684 36.808 82.514 36.7325C82.5652 36.6513 82.5386 36.5588 82.4324 36.4588C82.1706 36.2095 81.6528 36.015 81.2412 36.1189C81.1615 36.1378 81.0704 36.1736 80.9832 36.2322C80.7973 36.1718 80.5943 36.1019 80.3762 36.0264C78.136 35.2315 77.5024 32.6863 77.8647 30.6585C77.9994 29.8938 78.21 29.0857 78.3977 28.3947C78.5419 27.8679 78.6405 27.3109 78.7183 26.7464C78.7638 26.6803 78.8094 26.6086 78.8568 26.5255C79.0616 26.1762 79.2248 25.825 79.4145 25.4191C79.6459 24.9225 79.9058 24.3617 80.3193 23.6499C80.4558 23.4101 80.581 23.2062 80.6892 23.025C80.7157 22.9834 80.7385 22.9419 80.7631 22.9022C80.7707 22.9192 80.7802 22.9381 80.7897 22.957C80.8561 23.0986 80.9206 23.2327 80.9642 23.3422C81.1141 23.7028 81.2639 23.9426 81.5636 24.4203C81.7343 24.694 81.9468 25.0358 82.2389 25.5229C83.5098 27.6489 83.8399 27.7433 84.0485 27.6659C84.3691 27.5469 84.2875 26.8672 84.0201 25.3398C83.9916 25.1774 83.9632 25.0131 83.9366 24.8526C83.8892 24.5656 83.8797 24.205 83.8702 23.8217C83.8664 23.6933 83.8626 23.5631 83.8588 23.4347C84.0447 23.7122 84.2287 23.9954 84.3767 24.2598C85.0918 25.5135 87.5653 27.8453 88.1761 28.0643C88.6807 28.2455 88.7092 28.3532 88.823 29.2689C88.8362 29.3822 88.8419 29.4785 88.8419 29.5615C88.7357 29.5691 88.6466 29.5918 88.5783 29.6276C88.4493 29.6956 88.3525 29.8485 88.4626 30.0676C88.5289 30.1997 88.6674 30.262 88.8021 30.2224C88.8799 30.1978 89.024 30.1148 89.079 29.8183C89.521 29.8712 90.166 30.1374 90.4163 30.5585C90.7976 31.2023 90.0483 31.865 89.3522 32.3087C89.1587 32.4314 88.9918 32.49 88.8533 32.5107C88.8097 32.3163 88.6959 32.1784 88.5745 32.1312C88.4531 32.0822 88.3279 32.1199 88.2482 32.2275C88.1648 32.337 88.1818 32.49 88.288 32.6033C88.3639 32.6844 88.474 32.743 88.6143 32.7656C88.6124 32.7694 88.6124 32.7713 88.6124 32.7751C88.5726 33.1244 87.8669 34.2969 86.8142 35.4146C85.7652 36.5286 85.2284 39.0398 85.0899 40.2104ZM81.372 36.3587C81.6262 36.3209 81.9259 36.4172 82.1327 36.5532C81.9639 36.5229 81.7059 36.4587 81.372 36.3587ZM88.8135 29.8259C88.7869 29.9354 88.7471 29.9788 88.7224 29.9845C88.7092 29.9883 88.694 29.9731 88.6902 29.9599C88.6522 29.8844 88.6731 29.8731 88.6978 29.858C88.7281 29.8448 88.768 29.8334 88.8135 29.8259ZM88.5745 32.5013C88.5309 32.4843 88.4948 32.4617 88.472 32.4371C88.4531 32.4163 88.4436 32.3956 88.4493 32.3918C88.4569 32.3805 88.4626 32.3767 88.4664 32.3767C88.4701 32.3767 88.472 32.3786 88.4758 32.3805C88.5062 32.3899 88.546 32.4314 88.5745 32.5013ZM73.1965 35.7394C72.1513 35.7394 71.1517 35.9244 70.1843 36.1038C69.5754 36.2171 68.9437 36.3341 68.3158 36.4002C68.0674 36.4267 67.2289 36.5135 66.804 36.5135C66.3564 36.5135 66.0643 36.3587 65.9163 36.0377C65.1196 34.3271 64.3002 32.7317 63.5111 31.1872C62.0808 28.3966 60.7321 25.7608 59.5409 22.5869C58.2947 19.2658 56.4755 14.7608 54.8879 12.1571C54.5085 11.534 54.0419 10.7693 53.9679 10.6598C53.9451 10.6277 53.9091 10.5843 53.8598 10.5258C53.6663 10.3011 53.266 9.83473 53.3021 9.40425C53.3173 9.22299 53.4045 9.06817 53.5733 8.92656C53.7668 8.76419 54.002 8.6981 54.2334 8.6981C54.4743 8.6981 54.7115 8.76985 54.8955 8.87558C54.8803 8.9832 54.8575 9.09649 54.8366 9.20411C54.7684 9.54963 54.7247 9.77809 54.8784 9.86494C55.0093 9.93858 55.1629 9.82907 55.309 9.6969C55.5594 9.47222 55.5651 9.16635 55.3279 8.89635C55.2824 8.84537 55.2274 8.79439 55.1667 8.74908C55.1724 8.67167 55.1724 8.59614 55.1629 8.53006L55.1458 8.39223C55.0586 7.71252 54.8272 5.90561 54.9163 4.99177C55.0017 4.11758 55.1914 4.08738 55.199 4.08738C55.3317 4.07227 55.6618 4.48199 55.916 5.25799C56.1929 6.10386 56.54 7.43119 56.8758 8.71321C57.3159 10.3917 57.7692 12.1269 58.0879 12.884C58.5014 13.862 61.8342 18.79 64.5126 22.7474C66.0965 25.0886 67.5931 27.3015 67.6823 27.5243C67.7126 27.6697 68.0086 28.0492 69.7233 30.1299C70.943 31.6082 72.4605 33.451 73.2989 34.6065C73.4734 34.8482 73.9515 35.5053 74.033 35.8281C73.7789 35.7677 73.5 35.7394 73.1965 35.7394ZM55.0339 9.59306C55.0415 9.50243 55.0681 9.3646 55.0908 9.25509C55.1041 9.19089 55.1174 9.12481 55.1288 9.05873C55.1307 9.06062 55.1345 9.06439 55.1364 9.06628C55.2805 9.23243 55.2824 9.3797 55.1383 9.50809C55.0927 9.54586 55.0586 9.57229 55.0339 9.59306ZM76.9903 78.2253C76.9637 78.2253 76.939 78.2253 76.9144 78.2272C75.8066 78.2347 75.6909 78.2347 75.3115 76.6752C75.1712 76.0955 75.0213 75.4026 74.8752 74.7304C74.6894 73.8657 74.511 73.05 74.3858 72.6252C74.2246 72.0795 73.2098 66.9722 72.2557 61.7913C71.5519 57.9623 70.3683 51.3218 70.3683 49.8548C70.3683 46.628 69.012 44.1546 67.8151 41.972C66.9653 40.4238 66.2331 39.0851 66.2331 37.8503C66.2331 37.5501 66.2501 37.3575 66.3393 37.2687C66.4569 37.1536 66.768 37.1385 67.3143 37.1385C67.3902 37.1385 67.4679 37.1385 67.5514 37.1404C67.6481 37.1404 67.7487 37.1404 67.8568 37.1404C69.4255 37.1404 71.7264 36.6948 72.5952 36.4776C72.912 36.3983 73.206 36.3757 73.4659 36.3549C73.8187 36.3266 74.088 36.3039 74.2189 36.1491C74.733 36.3247 75.1237 36.6551 75.4007 37.1422C75.9887 38.1769 76.6014 39.1398 77.6409 39.5269C78.0923 39.6949 78.3314 39.846 78.3503 39.9782C78.3674 40.0952 78.2213 40.2708 77.9159 40.5012C77.4398 40.858 77.29 42.3194 77.5992 43.5636C77.9216 44.8551 78.6481 45.6557 79.644 45.8161C82.5064 46.2787 84.1301 46.1598 84.9097 45.431C85.6229 44.7645 85.5186 43.7071 85.3991 42.4837C85.3574 42.0683 85.3156 41.6453 85.3043 41.2186C85.6476 41.0525 86.2337 40.96 87.1461 40.9184C87.1973 40.9165 87.277 40.9109 87.3813 40.9033C93.1023 40.4993 95.9363 41.8493 97.3077 43.052C100.646 45.9823 100.694 46.8225 100.409 47.6174C100.079 48.5407 99.6086 49.3223 99.0528 49.8737C98.4857 50.4382 96.9776 52.0412 96.6552 53.3987C96.5395 53.478 96.4332 53.5215 96.327 53.5252C96.0102 53.5403 95.6138 53.2307 94.7943 52.4811C94.1039 51.8505 93.3072 51.0424 92.6015 50.3306C92.2051 49.9284 91.8314 49.5508 91.5469 49.277C91.268 49.007 90.9987 48.7219 90.7559 48.4444C90.606 47.6098 90.3519 46.9226 89.9137 46.7621C89.7088 46.6847 89.5684 46.7036 89.4983 46.8149C89.3219 47.0944 89.9402 47.9025 90.5131 48.5539C90.6041 49.0977 90.6667 49.7793 90.7047 50.6006C90.7085 50.6648 90.7104 50.7214 90.7123 50.7667C90.7198 50.9065 92.1065 66.0055 94.1001 69.9101C94.9632 71.6 95.2572 72.6403 95.0276 73.1822C94.855 73.59 94.3903 73.7297 93.8023 73.9091C93.7188 73.9355 93.6316 73.962 93.5443 73.9884C93.0777 74.1376 92.171 74.4623 91.1201 74.838C89.0127 75.5933 86.1256 76.628 85.1734 76.7998C84.6214 76.8998 84.1965 77.0377 83.7868 77.1698C83.1418 77.3775 82.5348 77.5739 81.5295 77.5739C81.1349 77.5739 80.7442 77.5626 80.3667 77.5531C78.8359 77.5097 77.5138 77.4719 76.9865 78.2291C76.9922 78.2234 76.9922 78.2234 76.9903 78.2253ZM90.4126 48.0252C90.018 47.5362 89.7505 47.1265 89.7278 46.9698C89.7486 46.9735 89.7809 46.9811 89.8283 46.9981C90.0711 47.0887 90.2646 47.4305 90.4126 48.0252ZM87.3681 139.092C87.2618 139.124 87.1708 139.15 87.1101 139.16C86.7345 139.222 86.0554 139.303 85.4977 139.352C85.4276 139.36 85.3669 139.339 85.3081 139.288C85.0728 139.088 84.9458 138.491 84.9078 138C84.8737 137.538 77.8439 118.376 76.8878 115.806C74.7482 110.055 74.9966 109.369 76.1898 106.069C76.4819 105.263 76.8442 104.26 77.235 102.993C77.7206 101.421 78.1606 99.8175 78.6235 98.1201C79.5795 94.6234 80.5697 91.0096 81.998 87.7224C82.6031 86.3328 83.4055 84.3673 84.1149 82.6321C84.5019 81.6843 84.868 80.7874 85.1392 80.1417C85.2113 79.9718 85.1848 79.6602 85.1525 79.2675C85.1487 79.226 85.1449 79.1825 85.1411 79.1391C85.3119 78.7728 85.4219 78.5293 85.4522 78.4556C85.4902 78.3556 85.5433 78.2536 85.5907 78.1611C85.6988 77.9534 85.7842 77.7873 85.6817 77.6702C85.5888 77.5607 85.4143 77.6003 85.2398 77.657C84.8168 77.8005 84.8281 78.4556 84.8775 79.0919C84.6347 79.613 84.2837 80.3588 83.9025 81.165C82.8971 83.2986 81.6452 85.9533 81.1842 87.0238C81.0477 87.3429 80.7537 88.0226 80.6019 88.2718C80.5962 88.2511 80.5905 88.2284 80.5848 88.2095C80.5754 88.1737 80.5659 88.1359 80.5545 88.0981C80.5033 87.9244 80.0689 86.9143 79.3614 85.2849C78.7012 83.7593 77.952 82.0317 77.4626 80.8384C77.0073 79.7263 76.8992 78.9541 77.1344 78.4821C77.3924 78.4802 77.694 78.4858 78.0468 78.5085C79.5624 78.6029 81.3019 78.3971 84.0523 77.7948C86.0402 77.3605 89.3807 76.2447 91.5905 75.5045C92.3341 75.2553 92.9771 75.0401 93.3736 74.9173C93.8743 74.7606 94.2499 74.5624 94.5496 74.4057C95.2079 74.0583 95.5379 73.8846 96.3403 74.4793C97.0611 75.0136 97.5145 76.0294 97.6909 77.5021C97.9773 79.9 97.4898 83.561 96.3536 87.5468C95.6062 90.1713 94.6483 92.6409 93.8288 94.123C93.808 94.1193 93.7871 94.1174 93.7643 94.1155C93.7473 94.1136 93.7302 94.1136 93.7131 94.1136C92.0666 94.1136 89.5248 99.5381 87.7474 103.639C87.6374 103.894 87.5559 104.077 87.5103 104.179C86.0668 107.326 85.3707 110.157 85.3232 113.089C85.2815 115.8 85.7766 118.464 86.3513 121.548C86.6795 123.311 87.0532 125.309 87.3605 127.533C87.37 127.61 88.3639 135.35 88.6371 138.033C88.6807 138.476 88.6655 138.793 88.584 139.016C88.2236 138.839 87.7152 138.99 87.3681 139.092ZM85.1165 78.5802C85.1165 78.2461 85.1601 77.9534 85.3251 77.8986C85.382 77.8798 85.4219 77.8684 85.4503 77.8628C85.4295 77.9156 85.3915 77.9855 85.3631 78.0421C85.3137 78.1384 85.2568 78.2479 85.2132 78.3612C85.198 78.3952 85.1658 78.4707 85.1165 78.5802ZM81.446 148.974C81.2355 148.878 81.0647 148.757 80.9661 148.598C80.8163 148.359 80.839 148.039 81.0363 147.647C81.1975 147.326 81.5086 147.146 81.962 146.961C83.5098 146.323 85.0482 144.269 85.2512 142.564C85.3763 141.527 85.437 140.848 85.4712 140.483C85.4826 140.372 85.4883 140.289 85.4959 140.236L85.4996 140.206C85.5091 140.109 85.511 140.085 85.5869 140.049C85.7178 139.985 86.0118 139.941 86.4822 139.913L86.5486 139.909C87.6393 139.847 88.3013 139.807 88.6541 139.405C88.6997 139.483 88.7281 139.581 88.7414 139.702C88.8761 140.969 89.2327 142.655 89.8321 143.585C90.1053 144.012 90.1489 144.439 89.963 144.89C89.2118 146.737 84.9401 148.283 83.5516 148.61C83.3031 148.668 83.1039 148.723 82.9256 148.774C82.4646 148.904 82.146 148.995 81.446 148.974Z" fill="#5B5F62" stroke="#5B5F62" stroke-width="0.6"/>
</svg>
