<svg width="26" height="26" viewBox="0 0 26 26" fill="none" xmlns="http://www.w3.org/2000/svg">
<path d="M16.9929 1.25V12.3269L24.2784 20.7638C24.6333 21.1724 24.8543 21.6637 24.9162 22.1813C24.9781 22.699 24.8783 23.222 24.6283 23.6904C24.3783 24.1588 23.9881 24.5536 23.5027 24.8295C23.0172 25.1053 22.4561 25.2511 21.8837 25.25H3.98446C3.41208 25.2511 2.85095 25.1053 2.36549 24.8295C1.88003 24.5536 1.48989 24.1588 1.23986 23.6904C0.989834 23.222 0.890039 22.699 0.951932 22.1813C1.01383 21.6637 1.2349 21.1724 1.58978 20.7638L8.8753 12.3269V1.25" stroke="url(#paint0_linear_85_548)" stroke-width="1.3" stroke-linecap="round" stroke-linejoin="round"/>
<path d="M5.83118 1.25H20.0369" stroke="url(#paint1_linear_85_548)" stroke-width="1.3" stroke-linecap="round" stroke-linejoin="round"/>
<defs>
<linearGradient id="paint0_linear_85_548" x1="0.934082" y1="18.25" x2="27.5771" y2="11.1031" gradientUnits="userSpaceOnUse">
<stop stop-color="#FEA554"/>
<stop offset="1" stop-color="#FF5E62"/>
</linearGradient>
<linearGradient id="paint1_linear_85_548" x1="5.83118" y1="1.95833" x2="6.92036" y2="-2.19211" gradientUnits="userSpaceOnUse">
<stop stop-color="#FEA554"/>
<stop offset="1" stop-color="#FF5E62"/>
</linearGradient>
</defs>
</svg>
