<svg width="22" height="21" viewBox="0 0 22 21" fill="none" xmlns="http://www.w3.org/2000/svg">
<path d="M11.4323 8.25123L17.875 10.5522V19.9387C17.875 20.1211 17.8026 20.2959 17.6736 20.4249C17.5447 20.5538 17.3698 20.6262 17.1875 20.6262H14.4375C14.2552 20.6262 14.0803 20.5538 13.9514 20.4249C13.8224 20.2959 13.75 20.1211 13.75 19.9387V15.1262H6.875V19.9387C6.875 20.1211 6.80257 20.2959 6.67364 20.4249C6.5447 20.5538 6.36984 20.6262 6.1875 20.6262H3.4375C3.25516 20.6262 3.0803 20.5538 2.95136 20.4249C2.82243 20.2959 2.75 20.1211 2.75 19.9387V10.7473C1.15328 10.1779 0 8.66631 0 6.87623C0 6.51156 0.144866 6.16182 0.402728 5.90396C0.660591 5.64609 1.01033 5.50123 1.375 5.50123C1.73967 5.50123 2.08941 5.64609 2.34727 5.90396C2.60513 6.16182 2.75 6.51156 2.75 6.87623C2.75068 7.24069 2.89577 7.59003 3.15348 7.84775C3.4112 8.10546 3.76054 8.25055 4.125 8.25123H11.4323ZM22 3.43873V4.81373C22 5.54307 21.7103 6.24255 21.1945 6.75827C20.6788 7.274 19.9793 7.56373 19.25 7.56373H17.875V9.09256L12.375 7.12845V0.688728C12.375 0.0764233 13.1149 -0.230374 13.5485 0.202751L14.7207 1.37623H17.0251C17.4939 1.37623 18.0456 1.71654 18.2548 2.13635L18.5625 2.75123H21.3125C21.4948 2.75123 21.6697 2.82366 21.7986 2.95259C21.9276 3.08152 22 3.25639 22 3.43873ZM17.1875 3.43873C17.1875 3.30275 17.1472 3.16983 17.0716 3.05677C16.9961 2.94371 16.8887 2.8556 16.7631 2.80356C16.6375 2.75153 16.4992 2.73791 16.3659 2.76444C16.2325 2.79097 16.11 2.85644 16.0139 2.95259C15.9177 3.04874 15.8522 3.17124 15.8257 3.3046C15.7992 3.43797 15.8128 3.5762 15.8648 3.70182C15.9169 3.82745 16.005 3.93482 16.118 4.01036C16.2311 4.08591 16.364 4.12623 16.5 4.12623C16.6823 4.12623 16.8572 4.05379 16.9861 3.92486C17.1151 3.79593 17.1875 3.62106 17.1875 3.43873Z" fill="#5B5F62"/>
</svg>
