<svg width="11" height="12" viewBox="0 0 11 12" fill="none" xmlns="http://www.w3.org/2000/svg">
<mask id="path-1-inside-1_47_1617" fill="white">
<path d="M5.29999 12C5.13292 11.9985 4.96799 11.9622 4.81576 11.8933C4.66354 11.8245 4.52738 11.7245 4.41599 11.6C2.95599 10 0.499995 6.956 0.499995 4.944C0.481822 3.65213 0.97711 2.40586 1.87709 1.47889C2.77707 0.551909 4.00816 0.0200099 5.29999 0C6.59183 0.0200099 7.82292 0.551909 8.7229 1.47889C9.62288 2.40586 10.1182 3.65213 10.1 4.944C10.1 6.944 7.64399 9.98 6.18399 11.604C6.07225 11.7278 5.93593 11.827 5.78373 11.8952C5.63152 11.9633 5.46677 11.999 5.29999 12ZM5.29999 0.8C4.22067 0.821031 3.19366 1.26896 2.44393 2.04568C1.6942 2.82241 1.28286 3.8646 1.29999 4.944C1.29999 6.2 2.68799 8.488 5.01199 11.068C5.04931 11.1067 5.09404 11.1375 5.14353 11.1585C5.19301 11.1796 5.24623 11.1904 5.29999 11.1904C5.35376 11.1904 5.40698 11.1796 5.45646 11.1585C5.50595 11.1375 5.55068 11.1067 5.58799 11.068C7.91199 8.488 9.29999 6.2 9.29999 4.944C9.31713 3.8646 8.90579 2.82241 8.15606 2.04568C7.40633 1.26896 6.37932 0.821031 5.29999 0.8Z"/>
</mask>
<path d="M5.29999 12C5.13292 11.9985 4.96799 11.9622 4.81576 11.8933C4.66354 11.8245 4.52738 11.7245 4.41599 11.6C2.95599 10 0.499995 6.956 0.499995 4.944C0.481822 3.65213 0.97711 2.40586 1.87709 1.47889C2.77707 0.551909 4.00816 0.0200099 5.29999 0C6.59183 0.0200099 7.82292 0.551909 8.7229 1.47889C9.62288 2.40586 10.1182 3.65213 10.1 4.944C10.1 6.944 7.64399 9.98 6.18399 11.604C6.07225 11.7278 5.93593 11.827 5.78373 11.8952C5.63152 11.9633 5.46677 11.999 5.29999 12ZM5.29999 0.8C4.22067 0.821031 3.19366 1.26896 2.44393 2.04568C1.6942 2.82241 1.28286 3.8646 1.29999 4.944C1.29999 6.2 2.68799 8.488 5.01199 11.068C5.04931 11.1067 5.09404 11.1375 5.14353 11.1585C5.19301 11.1796 5.24623 11.1904 5.29999 11.1904C5.35376 11.1904 5.40698 11.1796 5.45646 11.1585C5.50595 11.1375 5.55068 11.1067 5.58799 11.068C7.91199 8.488 9.29999 6.2 9.29999 4.944C9.31713 3.8646 8.90579 2.82241 8.15606 2.04568C7.40633 1.26896 6.37932 0.821031 5.29999 0.8Z" fill="#838688"/>
<path d="M5.29999 12L5.29127 13L5.29849 13L5.3057 13L5.29999 12ZM4.41599 11.6L5.16142 10.9333L5.15468 10.926L4.41599 11.6ZM0.499995 4.944L1.50009 4.944L1.4999 4.92993L0.499995 4.944ZM5.29999 0L5.31548 -0.99988L5.29999 -1.00012L5.28451 -0.99988L5.29999 0ZM10.1 4.944L9.09999 4.92993V4.944H10.1ZM6.18399 11.604L6.92637 12.274L6.92765 12.2726L6.18399 11.604ZM5.29999 0.8L5.31948 -0.19981L5.29999 -0.20019L5.28051 -0.19981L5.29999 0.8ZM1.29999 4.944H2.29999V4.93606L2.29987 4.92812L1.29999 4.944ZM5.01199 11.068L4.26899 11.7373L4.28028 11.7498L4.29199 11.762L5.01199 11.068ZM5.58799 11.068L6.30799 11.762L6.31971 11.7498L6.331 11.7373L5.58799 11.068ZM9.29999 4.944L8.30012 4.92812L8.29999 4.93606V4.944H9.29999ZM5.30872 11C5.28087 10.9998 5.25338 10.9937 5.22801 10.9823L4.40351 12.8044C4.68259 12.9307 4.98496 12.9973 5.29127 13L5.30872 11ZM5.22801 10.9823C5.20264 10.9708 5.17995 10.9541 5.16138 10.9334L3.6706 12.2666C3.87481 12.495 4.12444 12.6781 4.40351 12.8044L5.22801 10.9823ZM5.15468 10.926C4.4437 10.1468 3.50282 9.02911 2.74629 7.87746C2.36818 7.30186 2.04866 6.73663 1.82638 6.21548C1.59999 5.6847 1.49999 5.25838 1.49999 4.944H-0.500005C-0.500005 5.63562 -0.293 6.3443 -0.0132681 7.00014C0.270574 7.66562 0.656313 8.33864 1.0747 8.97554C1.91117 10.2489 2.92829 11.4532 3.67731 12.2741L5.15468 10.926ZM1.4999 4.92993C1.48545 3.90301 1.87916 2.91234 2.59457 2.17547L1.15961 0.782306C0.0750584 1.89939 -0.521806 3.40126 -0.499906 4.95807L1.4999 4.92993ZM2.59457 2.17547C3.30997 1.4386 4.28858 1.01579 5.31548 0.99988L5.28451 -0.99988C3.72773 -0.975766 2.24416 -0.334782 1.15961 0.782306L2.59457 2.17547ZM5.28451 0.99988C6.31141 1.01579 7.29002 1.4386 8.00542 2.17547L9.44038 0.782306C8.35583 -0.334782 6.87226 -0.975766 5.31548 -0.99988L5.28451 0.99988ZM8.00542 2.17547C8.72083 2.91234 9.11454 3.90301 9.10009 4.92993L11.0999 4.95807C11.1218 3.40126 10.5249 1.89939 9.44038 0.782306L8.00542 2.17547ZM9.09999 4.944C9.09999 5.2544 9.00057 5.67741 8.7741 6.20651C8.55183 6.72582 8.23225 7.28993 7.8538 7.8658C7.09663 9.01797 6.1548 10.1407 5.44034 10.9354L6.92765 12.2726C7.67319 11.4433 8.68936 10.236 9.52519 8.9642C9.94324 8.32807 10.3289 7.65668 10.6128 6.99349C10.8924 6.34009 11.1 5.6336 11.1 4.944H9.09999ZM5.44162 10.934C5.423 10.9547 5.40028 10.9712 5.37491 10.9825L6.19255 12.8078C6.47159 12.6828 6.72151 12.501 6.92637 12.274L5.44162 10.934ZM5.37491 10.9825C5.34954 10.9939 5.32208 10.9999 5.29429 11L5.3057 13C5.61146 12.9982 5.9135 12.9328 6.19255 12.8078L5.37491 10.9825ZM5.28051 -0.19981C3.93664 -0.173624 2.65792 0.384094 1.72443 1.35119L3.16343 2.74018C3.7294 2.15383 4.50469 1.81569 5.31948 1.79981L5.28051 -0.19981ZM1.72443 1.35119C0.790946 2.31828 0.278781 3.61592 0.300121 4.95988L2.29987 4.92812C2.28693 4.11328 2.59746 3.32653 3.16343 2.74018L1.72443 1.35119ZM0.299995 4.944C0.299995 5.8644 0.777412 6.95258 1.42938 8.02794C2.10854 9.14816 3.07865 10.4158 4.26899 11.7373L5.755 10.3987C4.62134 9.14018 3.73544 7.97384 3.13961 6.99106C2.51658 5.96342 2.29999 5.2796 2.29999 4.944H0.299995ZM4.29199 11.762C4.42259 11.8975 4.57917 12.0052 4.75236 12.0789L5.5347 10.2382C5.60892 10.2698 5.67602 10.316 5.73199 10.374L4.29199 11.762ZM4.75236 12.0789C4.92555 12.1525 5.11181 12.1904 5.29999 12.1904V10.1904C5.38065 10.1904 5.46047 10.2067 5.5347 10.2382L4.75236 12.0789ZM5.29999 12.1904C5.48818 12.1904 5.67444 12.1525 5.84763 12.0789L5.06529 10.2382C5.13952 10.2067 5.21934 10.1904 5.29999 10.1904V12.1904ZM5.84763 12.0789C6.02082 12.0052 6.17739 11.8975 6.30799 11.762L4.86799 10.374C4.92397 10.316 4.99107 10.2698 5.06529 10.2382L5.84763 12.0789ZM6.331 11.7373C7.52134 10.4158 8.49144 9.14816 9.17061 8.02794C9.82258 6.95258 10.3 5.8644 10.3 4.944H8.29999C8.29999 5.2796 8.08341 5.96342 7.46038 6.99106C6.86454 7.97384 5.97864 9.14018 4.84499 10.3987L6.331 11.7373ZM10.2999 4.95988C10.3212 3.61592 9.80904 2.31828 8.87555 1.35119L7.43656 2.74018C8.00253 3.32653 8.31306 4.11328 8.30012 4.92812L10.2999 4.95988ZM8.87555 1.35119C7.94207 0.384094 6.66335 -0.173624 5.31948 -0.19981L5.28051 1.79981C6.0953 1.81569 6.87059 2.15383 7.43656 2.74018L8.87555 1.35119Z" fill="#838688" mask="url(#path-1-inside-1_47_1617)"/>
<path d="M5.30003 7.2C4.82535 7.2 4.36133 7.05925 3.96666 6.79553C3.57198 6.53181 3.26436 6.15699 3.08271 5.71844C2.90106 5.2799 2.85354 4.79734 2.94614 4.33179C3.03875 3.86623 3.26732 3.43859 3.60297 3.10295C3.93862 2.7673 4.36625 2.53872 4.83181 2.44612C5.29736 2.35351 5.77992 2.40104 6.21847 2.58269C6.65701 2.76434 7.03184 3.07196 7.29555 3.46663C7.55927 3.86131 7.70003 4.32533 7.70003 4.8C7.70003 5.43652 7.44717 6.04697 6.99708 6.49706C6.54699 6.94715 5.93654 7.2 5.30003 7.2ZM5.30003 3.2C4.98358 3.2 4.67423 3.29384 4.41111 3.46965C4.14799 3.64546 3.94292 3.89535 3.82182 4.18771C3.70072 4.48007 3.66903 4.80178 3.73077 5.11215C3.79251 5.42252 3.94489 5.70761 4.16865 5.93137C4.39242 6.15514 4.67751 6.30752 4.98788 6.36926C5.29825 6.431 5.61996 6.39931 5.91232 6.27821C6.20468 6.15711 6.45457 5.95203 6.63038 5.68891C6.80619 5.4258 6.90003 5.11645 6.90003 4.8C6.90003 4.37566 6.73145 3.96869 6.4314 3.66863C6.13134 3.36857 5.72437 3.2 5.30003 3.2Z" fill="#838688"/>
</svg>
