<svg width="21" height="22" viewBox="0 0 21 22" fill="none" xmlns="http://www.w3.org/2000/svg">
<path d="M7.80998 12.8891C7.71679 12.7875 7.6035 12.7064 7.47731 12.6509C7.35111 12.5954 7.21477 12.5668 7.07692 12.5668C6.93907 12.5668 6.80273 12.5954 6.67653 12.6509C6.55034 12.7064 6.43705 12.7875 6.34386 12.8891L0.322273 18.9106C0.2207 19.0038 0.139603 19.1171 0.084125 19.2433C0.0286473 19.3695 0 19.5059 0 19.6437C0 19.7816 0.0286473 19.9179 0.084125 20.0441C0.139603 20.1703 0.2207 20.2836 0.322273 20.3768C0.415469 20.4783 0.528755 20.5594 0.654948 20.6149C0.781141 20.6704 0.917486 20.699 1.05534 20.699C1.19319 20.699 1.32953 20.6704 1.45572 20.6149C1.58192 20.5594 1.6952 20.4783 1.7884 20.3768L7.80998 14.3552C7.91156 14.262 7.99265 14.1487 8.04813 14.0225C8.10361 13.8963 8.13226 13.76 8.13226 13.6221C8.13226 13.4843 8.10361 13.3479 8.04813 13.2217C7.99265 13.0955 7.91156 12.9823 7.80998 12.8891Z" fill="#5B5F62"/>
<path d="M20.6386 0.322273C20.5454 0.2207 20.4321 0.139603 20.3059 0.0841252C20.1797 0.0286474 20.0434 0 19.9055 0C19.7677 0 19.6313 0.0286474 19.5051 0.0841252C19.3789 0.139603 19.2656 0.2207 19.1724 0.322273L16.7115 2.73091C15.639 1.84766 14.3375 1.28738 12.9588 1.11537C11.5802 0.943355 10.181 1.16668 8.92433 1.75934C7.6677 2.35199 6.60535 3.28955 5.8611 4.46278C5.11685 5.63601 4.72133 6.99658 4.72065 8.38596C4.71991 8.53276 4.75004 8.67807 4.8091 8.81247C4.86815 8.94687 4.9548 9.06735 5.06342 9.1661C5.17204 9.26485 5.30021 9.33965 5.43962 9.38567C5.57902 9.43168 5.72654 9.44787 5.8726 9.43319C6.13623 9.39515 6.3771 9.26271 6.55045 9.06047C6.72379 8.85823 6.81784 8.59995 6.81511 8.3336C6.81572 7.63565 6.96017 6.94531 7.23945 6.30567C7.51873 5.66603 7.92684 5.09082 8.43832 4.61592C8.93885 4.11971 9.53719 3.73309 10.1953 3.48068C10.8533 3.22827 11.5567 3.11559 12.2607 3.1498C15.8213 3.30688 18.6488 7.28637 16.5544 10.9517C15.9338 12.0379 14.9517 12.8718 13.7792 13.3079C12.9402 13.6934 12.2313 14.3143 11.7386 15.0951C11.246 15.876 10.9908 16.7831 11.004 17.7063C11.0055 18.2634 10.7954 18.8002 10.4164 19.2084C10.0374 19.6166 9.51755 19.8657 8.96194 19.9055C8.40264 19.9042 7.86292 19.6995 7.44345 19.3295L7.28636 19.1201C7.18653 19.0133 7.04984 18.9485 6.90399 18.9388C6.75815 18.9291 6.61406 18.9752 6.50094 19.0677L5.76788 19.8008C5.67513 19.8977 5.61915 20.024 5.60959 20.1579C5.60003 20.2917 5.63749 20.4247 5.71552 20.5338C5.82024 20.6386 5.8726 20.7433 5.97732 20.7957C6.3629 21.1793 6.82036 21.4832 7.32351 21.6898C7.82667 21.8965 8.36564 22.0019 8.90957 22H9.0143C10.1255 21.9458 11.1722 21.4625 11.9341 20.6518C12.6959 19.8411 13.1134 18.7663 13.0985 17.654C13.0825 17.14 13.2245 16.6335 13.5054 16.2028C13.7863 15.7721 14.1926 15.4379 14.6693 15.2453C15.6995 14.8507 16.6273 14.2287 17.3836 13.4256C18.1399 12.6226 18.7052 11.6592 19.0374 10.6073C19.3696 9.55533 19.4601 8.442 19.3021 7.35023C19.1442 6.25846 18.7419 5.21642 18.1252 4.30175L20.6386 1.7884C20.7401 1.6952 20.8212 1.58192 20.8767 1.45572C20.9322 1.32953 20.9608 1.19319 20.9608 1.05534C20.9608 0.917486 20.9322 0.781141 20.8767 0.654948C20.8212 0.528755 20.7401 0.415468 20.6386 0.322273Z" fill="#5B5F62"/>
<path d="M8.90956 9.43322C9.18731 9.43322 9.45367 9.32289 9.65007 9.12649C9.84646 8.9301 9.95679 8.66373 9.95679 8.38599C9.95679 7.8305 10.1775 7.29777 10.5702 6.90498C10.963 6.51219 11.4958 6.29153 12.0513 6.29153C12.6067 6.29153 13.1395 6.51219 13.5323 6.90498C13.9251 7.29777 14.1457 7.8305 14.1457 8.38599C14.1457 8.66373 14.2561 8.9301 14.4524 9.12649C14.6488 9.32289 14.9152 9.43322 15.193 9.43322C15.4707 9.43322 15.7371 9.32289 15.9335 9.12649C16.1299 8.9301 16.2402 8.66373 16.2402 8.38599C16.2402 7.27502 15.7989 6.20955 15.0133 5.42397C14.2277 4.63839 13.1622 4.19706 12.0513 4.19706C10.9403 4.19706 9.87482 4.63839 9.08924 5.42397C8.30366 6.20955 7.86233 7.27502 7.86233 8.38599C7.86233 8.66373 7.97266 8.9301 8.16906 9.12649C8.36545 9.32289 8.63182 9.43322 8.90956 9.43322Z" fill="#5B5F62"/>
</svg>
