<svg width="26" height="26" viewBox="0 0 26 26" fill="none" xmlns="http://www.w3.org/2000/svg">
<path d="M10.5779 19.7115C10.5779 21.1804 11.1615 22.5892 12.2001 23.6278C13.2388 24.6665 14.6475 25.25 16.1164 25.25H19.8087C21.2776 25.25 22.6863 24.6665 23.725 23.6278C24.7637 22.5892 25.3472 21.1804 25.3472 19.7115V1.25" stroke="url(#paint0_linear_85_556)" stroke-width="1.3" stroke-linecap="round" stroke-linejoin="round"/>
<path d="M19.8087 10.4808C19.8087 9.5015 19.4197 8.56235 18.7273 7.8699C18.0348 7.17746 17.0957 6.78845 16.1164 6.78845H5.03948C4.06021 6.78845 3.12106 7.17746 2.42862 7.8699C1.73618 8.56235 1.34717 9.5015 1.34717 10.4808V14.1731C1.34717 15.1523 1.73618 16.0915 2.42862 16.7839C3.12106 17.4764 4.06021 17.8654 5.03948 17.8654H6.88563L9.04563 14.6346C9.21451 14.3833 9.4426 14.1774 9.70982 14.035C9.97703 13.8926 10.2752 13.8182 10.5779 13.8182C10.8807 13.8182 11.1788 13.8926 11.4461 14.035C11.7133 14.1774 11.9414 14.3833 12.1102 14.6346L14.2702 17.8654H16.1164C17.0957 17.8654 18.0348 17.4764 18.7273 16.7839C19.4197 16.0915 19.8087 15.1523 19.8087 14.1731V10.4808Z" stroke="url(#paint1_linear_85_556)" stroke-width="1.3" stroke-linecap="round" stroke-linejoin="round"/>
<defs>
<linearGradient id="paint0_linear_85_556" x1="10.5779" y1="18.25" x2="27.6872" y2="15.4257" gradientUnits="userSpaceOnUse">
<stop stop-color="#FEA554"/>
<stop offset="1" stop-color="#FF5E62"/>
</linearGradient>
<linearGradient id="paint1_linear_85_556" x1="1.34717" y1="14.6346" x2="19.6569" y2="6.44881" gradientUnits="userSpaceOnUse">
<stop stop-color="#FEA554"/>
<stop offset="1" stop-color="#FF5E62"/>
</linearGradient>
</defs>
</svg>
