<svg width="22" height="18" viewBox="0 0 22 18" fill="none" xmlns="http://www.w3.org/2000/svg">
<path d="M10.2476 0.0255585C4.40764 0.415142 0 5.5332 0 11.3884V16.4988C0 16.8349 0.275 17.1099 0.611111 17.1099H1.83333C2.16944 17.1099 2.44444 16.8349 2.44444 16.4988V10.9988C2.44444 5.91132 6.90937 1.84361 12.1267 2.51584C16.4389 3.06966 19.5556 6.95021 19.5556 11.2967V16.4988C19.5556 16.8349 19.8306 17.1099 20.1667 17.1099H21.3889C21.725 17.1099 22 16.8349 22 16.4988V10.9988C22 4.68528 16.6528 -0.406039 10.2476 0.0255585ZM10.0337 3.7266C6.34028 4.20021 3.66667 7.52695 3.66667 11.2547V16.4988C3.66667 16.8349 3.94167 17.1099 4.27778 17.1099H5.5C5.83611 17.1099 6.11111 16.8349 6.11111 16.4988V10.9988C6.11111 8.14188 8.57465 5.85021 11.4889 6.13285C14.0288 6.38111 15.8889 8.66132 15.8889 11.2165V16.4988C15.8889 16.8349 16.1639 17.1099 16.5 17.1099H17.7222C18.0583 17.1099 18.3333 16.8349 18.3333 16.4988V10.9988C18.3333 6.63702 14.5063 3.15368 10.0337 3.7266ZM10.2705 7.40472C8.52882 7.74466 7.33333 9.37174 7.33333 11.144V16.4988C7.33333 16.8349 7.60833 17.1099 7.94444 17.1099H9.16667C9.50278 17.1099 9.77778 16.8349 9.77778 16.4988V10.9988C9.77778 10.3266 10.324 9.7766 11 9.7766C11.676 9.7766 12.2222 10.3266 12.2222 10.9988V16.4988C12.2222 16.8349 12.4972 17.1099 12.8333 17.1099H14.0556C14.3917 17.1099 14.6667 16.8349 14.6667 16.4988V10.9988C14.6667 8.73771 12.6118 6.95021 10.2705 7.40472Z" fill="#5B5F62"/>
</svg>
