<svg width="14" height="12" viewBox="0 0 14 12" fill="none" xmlns="http://www.w3.org/2000/svg">
<path d="M6.42537 2.42764C6.52376 2.65765 6.74983 2.80682 7 2.80682C7.25017 2.80682 7.47624 2.65765 7.57463 2.42764C7.8403 1.8066 8.32035 1.29063 8.93692 0.970843C9.55377 0.650903 10.267 0.548422 10.9544 0.682324C11.6416 0.8162 12.2567 1.17727 12.6968 1.70014C13.1366 2.22266 13.375 2.87483 13.375 3.54546C13.375 5.56913 11.8231 7.52033 10.088 9.04138C9.24086 9.78401 8.39074 10.3888 7.75099 10.8083C7.44193 11.011 7.18342 11.1696 7 11.2786C6.81658 11.1696 6.55807 11.011 6.24901 10.8083C5.60926 10.3888 4.75914 9.78401 3.912 9.04138C2.17687 7.52033 0.625 5.56913 0.625 3.54546C0.625 2.87483 0.863424 2.22266 1.30321 1.70014C1.74329 1.17727 2.35841 0.8162 3.04564 0.682324C3.73301 0.548422 4.44623 0.650903 5.06308 0.970843C5.67965 1.29063 6.1597 1.8066 6.42537 2.42764Z" fill="white" stroke="#838688" stroke-width="1.25" stroke-linecap="round" stroke-linejoin="round"/>
</svg>
