<svg width="26" height="26" viewBox="0 0 26 26" fill="none" xmlns="http://www.w3.org/2000/svg">
<path d="M3.34462 15.7736C1.8261 13.848 1.00016 11.4669 1 9.01427V2.99366C3.53059 1.68368 6.33836 1 9.18769 1C12.037 1 14.8448 1.68368 17.3754 2.99366" stroke="url(#paint0_linear_85_551)" stroke-width="1.3" stroke-linecap="round" stroke-linejoin="round"/>
<path d="M14.4584 24.897C13.8124 25.043 13.1409 25.0338 12.4991 24.8701C11.8573 24.7064 11.2634 24.3928 10.7661 23.9551V23.9551C9.03859 22.4653 7.75934 20.5242 7.07142 18.3488C6.3835 16.1734 6.31401 13.8495 6.87074 11.6369L8.21843 6.24415C11.1455 5.50154 14.211 5.49752 17.14 6.23244C20.069 6.96737 22.7698 8.41825 25 10.4549L23.6523 15.8291C23.109 18.0438 21.9619 20.0641 20.3386 21.6651C18.7154 23.2661 16.6797 24.3849 14.4584 24.897V24.897Z" stroke="url(#paint1_linear_85_551)" stroke-width="1.3" stroke-linecap="round" stroke-linejoin="round"/>
<path d="M10.4338 12.0985C10.6667 11.8547 10.9619 11.6793 11.2873 11.5914C11.6128 11.5035 11.9561 11.5064 12.28 11.5999C12.597 11.6745 12.8887 11.8317 13.1254 12.0555C13.3621 12.2793 13.5354 12.5617 13.6277 12.8742" stroke="url(#paint2_linear_85_551)" stroke-width="1.3" stroke-linecap="round" stroke-linejoin="round"/>
<path d="M17.7446 13.9267C17.9701 13.6844 18.2565 13.5071 18.5739 13.4135C18.8913 13.3198 19.228 13.3132 19.5489 13.3944C19.8697 13.4756 20.1628 13.6415 20.3975 13.8749C20.6322 14.1082 20.8 14.4004 20.8831 14.7209" stroke="url(#paint3_linear_85_551)" stroke-width="1.3" stroke-linecap="round" stroke-linejoin="round"/>
<defs>
<linearGradient id="paint0_linear_85_551" x1="1" y1="11.4646" x2="18.904" y2="6.14127" gradientUnits="userSpaceOnUse">
<stop stop-color="#FEA554"/>
<stop offset="1" stop-color="#FF5E62"/>
</linearGradient>
<linearGradient id="paint1_linear_85_551" x1="6.49884" y1="19.3663" x2="27.1519" y2="14.0599" gradientUnits="userSpaceOnUse">
<stop stop-color="#FEA554"/>
<stop offset="1" stop-color="#FF5E62"/>
</linearGradient>
<linearGradient id="paint2_linear_85_551" x1="10.4338" y1="12.4814" x2="13.1394" y2="10.7601" gradientUnits="userSpaceOnUse">
<stop stop-color="#FEA554"/>
<stop offset="1" stop-color="#FF5E62"/>
</linearGradient>
<linearGradient id="paint3_linear_85_551" x1="17.7446" y1="14.3175" x2="20.4695" y2="12.6586" gradientUnits="userSpaceOnUse">
<stop stop-color="#FEA554"/>
<stop offset="1" stop-color="#FF5E62"/>
</linearGradient>
</defs>
</svg>
