<svg width="26" height="27" viewBox="0 0 26 27" fill="none" xmlns="http://www.w3.org/2000/svg">
<path d="M13 25.5C19.6274 25.5 25 20.1274 25 13.5C25 6.87258 19.6274 1.5 13 1.5C6.37258 1.5 1 6.87258 1 13.5C1 20.1274 6.37258 25.5 13 25.5Z" stroke="url(#paint0_linear_85_559)" stroke-width="1.3" stroke-linecap="round" stroke-linejoin="round"/>
<path d="M23.1169 7.03845H15.7323C14.753 7.03845 13.8139 7.42746 13.1214 8.1199C12.429 8.81235 12.04 9.7515 12.04 10.7308C12.04 11.71 12.429 12.6492 13.1214 13.3416C13.8139 14.0341 14.753 14.4231 15.7323 14.4231C16.2219 14.4231 16.6915 14.6176 17.0377 14.9638C17.3839 15.31 17.5784 15.7796 17.5784 16.2692V24.5769" stroke="url(#paint1_linear_85_559)" stroke-width="1.3" stroke-linecap="round" stroke-linejoin="round"/>
<path d="M1.14789 15.3462H5.61558C6.59484 15.3462 7.53399 15.7352 8.22644 16.4276C8.91888 17.1201 9.30789 18.0592 9.30789 19.0385V24.9277" stroke="url(#paint2_linear_85_559)" stroke-width="1.3" stroke-linecap="round" stroke-linejoin="round"/>
<defs>
<linearGradient id="paint0_linear_85_559" x1="1" y1="18.5" x2="27.6431" y2="11.3531" gradientUnits="userSpaceOnUse">
<stop stop-color="#FEA554"/>
<stop offset="1" stop-color="#FF5E62"/>
</linearGradient>
<linearGradient id="paint1_linear_85_559" x1="12.04" y1="19.4615" x2="24.8538" y2="17.2906" gradientUnits="userSpaceOnUse">
<stop stop-color="#FEA554"/>
<stop offset="1" stop-color="#FF5E62"/>
</linearGradient>
<linearGradient id="paint2_linear_85_559" x1="1.14789" y1="22.1331" x2="10.3767" y2="20.0248" gradientUnits="userSpaceOnUse">
<stop stop-color="#FEA554"/>
<stop offset="1" stop-color="#FF5E62"/>
</linearGradient>
</defs>
</svg>
