<svg width="24" height="24" viewBox="0 0 24 24" fill="none" xmlns="http://www.w3.org/2000/svg">
<path d="M4.18353 21.4339V19.7848C6.18165 21.794 8.93821 23.05 11.9953 23.05C18.1035 23.05 23.05 18.0963 23.05 12C23.05 11.8943 23.0404 11.789 23.0213 11.6748L23.0144 11.633H22.972H22.9599C22.8146 11.2683 22.469 11.0085 22.0487 11.0085C21.6285 11.0085 21.2829 11.2683 21.1376 11.633H21.0975H21.0432L21.0477 11.6872C21.0484 11.6957 21.0491 11.7042 21.0498 11.7126C21.0584 11.815 21.0662 11.9076 21.0662 12C21.0662 17.0063 17.0038 21.0669 11.9953 21.0669C9.30839 21.0669 6.90953 19.8877 5.25132 18.0254H7.59347C8.14332 18.0254 8.5854 17.5836 8.5854 17.0339C8.5854 16.4842 8.14332 16.0424 7.59347 16.0424H3.19161C2.64176 16.0424 2.19968 16.4842 2.19968 17.0339V21.4339C2.19968 21.9836 2.64176 22.4254 3.19161 22.4254C3.74146 22.4254 4.18353 21.9836 4.18353 21.4339ZM19.8071 4.19692C17.809 2.1969 15.0524 0.95 11.9953 0.95C6.21712 0.95 1.4969 5.38545 1.01602 11.0477C0.978719 11.1516 0.95 11.2673 0.95 11.3847C0.95 11.4143 0.955893 11.4424 0.961986 11.4668C0.964364 11.4763 0.966653 11.4849 0.968812 11.4929C0.972234 11.5057 0.975332 11.5173 0.977951 11.5296C0.9777 11.5535 0.975695 11.5778 0.973488 11.6043L0.97341 11.6053C0.971129 11.6326 0.968652 11.6623 0.968652 11.6924V11.7424H1.01865H1.03076C1.17608 12.1071 1.52165 12.3669 1.94192 12.3669C2.3622 12.3669 2.70776 12.1071 2.85309 11.7424H2.89318H2.94149L2.94315 11.6941C3.11009 6.83607 7.08904 2.94237 11.9953 2.94237C14.6823 2.94237 17.0811 4.12164 18.7394 5.9839H16.3972C15.8474 5.9839 15.4053 6.42576 15.4053 6.97542C15.4053 7.52509 15.8474 7.96695 16.3972 7.96695H20.7991C21.3492 7.96695 21.791 7.51545 21.791 6.97542V2.57542C21.791 2.02576 21.3489 1.5839 20.7991 1.5839C20.2492 1.5839 19.8071 2.02576 19.8071 2.57542V4.19692Z" fill="#FEA554" stroke="#FEA554" stroke-width="0.1"/>
</svg>
