<svg width="22" height="18" viewBox="0 0 22 18" fill="none" xmlns="http://www.w3.org/2000/svg">
<path d="M21.6608 7.80109C20.6106 6.50091 16.7101 2.25032 11.0093 2.25032C9.55457 2.24581 8.11221 2.51732 6.75869 3.05043L3.85828 0.200029C3.66568 0.0555801 3.42744 -0.014549 3.1873 0.00251746C2.94716 0.0195839 2.72123 0.1227 2.55099 0.292935C2.38076 0.463171 2.27764 0.689099 2.26057 0.929242C2.24351 1.16939 2.31364 1.40763 2.45809 1.60023L18.1603 17.3024C18.2463 17.4171 18.3559 17.5119 18.4817 17.5805C18.6075 17.6491 18.7466 17.6898 18.8895 17.7C19.0324 17.7101 19.1759 17.6894 19.3101 17.6393C19.4444 17.5892 19.5663 17.5109 19.6676 17.4095C19.7689 17.3082 19.8473 17.1863 19.8974 17.0521C19.9475 16.9178 19.9682 16.7744 19.958 16.6314C19.9479 16.4885 19.9071 16.3494 19.8385 16.2236C19.7699 16.0978 19.6751 15.9882 19.5605 15.9022L17.2102 13.5019C18.9141 12.5185 20.4227 11.2302 21.6608 9.70136C21.8801 9.43331 22 9.0976 22 8.75123C22 8.40485 21.8801 8.06915 21.6608 7.80109ZM15.7099 12.0517L13.7097 10.0514C13.9094 9.64722 14.0121 9.20205 14.0097 8.75123C14.0097 7.95546 13.6936 7.1923 13.1309 6.62961C12.5682 6.06692 11.805 5.75081 11.0093 5.75081C10.5585 5.74841 10.1133 5.85115 9.7091 6.05085L8.30891 4.65065C9.18523 4.38869 10.0946 4.25397 11.0093 4.2506C15.4099 4.2506 18.6604 7.35103 19.8605 8.75123C18.6862 10.0915 17.2803 11.2094 15.7099 12.0517Z" fill="#5B5F62"/>
<path d="M4.20832 5.55074C4.01572 5.40629 3.77748 5.33616 3.53734 5.35323C3.29719 5.37029 3.07126 5.47341 2.90103 5.64364C2.73079 5.81388 2.62768 6.03981 2.61061 6.27995C2.59354 6.52009 2.66367 6.75833 2.80812 6.95093L10.3092 14.452C10.5018 14.5964 10.74 14.6666 10.9802 14.6495C11.2203 14.6324 11.4462 14.5293 11.6165 14.3591C11.7867 14.1888 11.8898 13.9629 11.9069 13.7228C11.9239 13.4826 11.8538 13.2444 11.7094 13.0518L4.20832 5.55074Z" fill="#5B5F62"/>
<path d="M1.70798 8.05113C1.61897 7.95412 1.51078 7.87667 1.39026 7.82369C1.26974 7.77071 1.13953 7.74335 1.00788 7.74335C0.876229 7.74335 0.746015 7.77071 0.625497 7.82369C0.504978 7.87667 0.396786 7.95412 0.307781 8.05113C0.210776 8.14013 0.133325 8.24833 0.0803422 8.36884C0.0273592 8.48936 0 8.61958 0 8.75123C0 8.88288 0.0273592 9.01309 0.0803422 9.13361C0.133325 9.25413 0.210776 9.36232 0.307781 9.45132L3.80827 12.9518C4.00087 13.0963 4.23911 13.1664 4.47925 13.1493C4.7194 13.1323 4.94533 13.0291 5.11556 12.8589C5.2858 12.6887 5.38891 12.4627 5.40598 12.2226C5.42305 11.9825 5.35292 11.7442 5.20847 11.5516L1.70798 8.05113Z" fill="#5B5F62"/>
</svg>
