<svg width="24" height="24" viewBox="0 0 24 24" fill="none" xmlns="http://www.w3.org/2000/svg">
<path d="M12.5789 21.8421H1.69473C1.31104 21.8421 1 21.531 1 21.1473V1.69473C1 1.31104 1.31104 1 1.69473 1H21.1473C21.531 1 21.842 1.31104 21.842 1.69473V12.5789" stroke="#FEA554" stroke-width="2" stroke-linecap="round" stroke-linejoin="round"/>
<path d="M1 16.0526L9.10523 12.5789L15.4736 15.4736" stroke="#FEA554" stroke-width="2" stroke-linecap="round" stroke-linejoin="round"/>
<path d="M16.0526 9.1052C14.7736 9.1052 13.7368 8.06839 13.7368 6.78942C13.7368 5.51044 14.7736 4.47363 16.0526 4.47363C17.3316 4.47363 18.3684 5.51044 18.3684 6.78942C18.3684 8.06839 17.3316 9.1052 16.0526 9.1052Z" stroke="#FEA554" stroke-width="2" stroke-linecap="round" stroke-linejoin="round"/>
<path d="M16.0527 19.5262H19.5264M19.5264 19.5262H23.0001M19.5264 19.5262V16.0526M19.5264 19.5262V22.9999" stroke="#FEA554" stroke-width="2" stroke-linecap="round" stroke-linejoin="round"/>
</svg>
