<svg width="22" height="22" viewBox="0 0 22 22" fill="none" xmlns="http://www.w3.org/2000/svg">
<path d="M19.3333 13.3333V20.2C19.3333 20.6418 18.9752 21 18.5333 21H1.8C1.35817 21 1 20.6418 1 20.2V3.46666C1 3.02483 1.35817 2.66666 1.8 2.66666H8.66667" stroke="white" stroke-width="2" stroke-linecap="round" stroke-linejoin="round"/>
<path d="M17.9983 6.99636L17.9949 6.99974M5.8335 15.7809C5.8402 16.0005 6.02349 16.1731 6.24302 16.1665L9.8862 15.1665L13.9422 11.0814L17.9949 6.99974M5.8335 15.7809C5.8335 15.773 5.8335 15.7651 5.8335 15.7571M5.8335 15.7809V15.7571M5.8335 15.7571L6.8335 12.1667L10.9171 8.08311L15.0007 3.99953M15.0019 3.99832L16.5865 2.41374C17.3676 1.63284 18.6339 1.63279 19.415 2.41364L19.5863 2.58461C20.3665 3.36468 20.3676 4.62918 19.5889 5.41067L18.0001 7.00499L17.9949 6.99974" stroke="white" stroke-width="2" stroke-linecap="round" stroke-linejoin="round"/>
<path d="M15.1665 4.33334L16.6248 5.79168L18.0832 7.25001" stroke="white" stroke-width="2"/>
</svg>
