<svg width="21" height="22" viewBox="0 0 21 22" fill="none" xmlns="http://www.w3.org/2000/svg">
<path d="M8.00652 0C6.80381 0.008635 5.85094 0.932342 5.79964 2.18339C5.80839 3.40076 6.74188 4.3443 8.00652 4.39083C9.13266 4.37558 10.133 3.44712 10.1899 2.18339C10.1814 0.97097 9.25335 0.055275 8.00652 0ZM8.61667 4.88354C8.1158 4.88354 7.69318 5.05175 7.34881 5.38828C7.06902 5.66909 6.75578 6.28846 6.8561 6.78562H6.83261L8.12396 13.0075C8.25715 13.7202 8.84369 14.1797 9.62672 14.2284C11.4255 14.2234 13.376 14.1826 15.2144 14.2049L18.3138 19.6052C18.6626 20.3413 19.5556 20.4963 20.2039 19.9576C20.5149 19.649 20.6407 19.1239 20.4268 18.6662L16.8346 12.4203C16.5758 11.8848 16.0651 11.5831 15.4258 11.5517H11.4343L10.965 9.25089H14.0874C14.7624 9.30083 15.2487 8.78568 15.109 8.07699C15.0063 7.73071 14.6474 7.41189 14.2284 7.39581H10.5657C10.3811 6.45232 10.4105 5.88197 9.68517 5.23591C9.37994 5.00109 9.02363 4.88354 8.61667 4.88354ZM5.24849 7.54646C5.15207 7.54776 5.053 7.55984 4.954 7.58369C3.57086 8.12187 2.32652 9.04671 1.3618 10.3308C0.511702 11.5296 0.0364283 12.9726 0 14.5572C0.0141533 16.4353 0.820618 18.3626 2.26589 19.8166C3.6667 21.1508 5.61108 21.9561 7.70116 22C9.22561 21.9916 10.7495 21.5414 12.139 20.6502C13.3869 19.8025 14.3649 18.5861 14.956 17.0695C15.0656 16.8034 15.1596 16.5056 15.2379 16.1769C15.3525 15.6601 15.0624 15.2403 14.5103 15.0734C14.008 14.9622 13.5589 15.2393 13.3833 15.7781C13.3364 16.0129 13.2659 16.2396 13.1719 16.4587C12.7732 17.513 12.031 18.4256 11.047 19.1354C10.0903 19.786 8.94445 20.1403 7.70116 20.1684C6.22259 20.1579 4.7984 19.5943 3.60422 18.5253C2.57812 17.5304 1.93622 16.1069 1.90208 14.5572C1.90865 13.4526 2.26439 12.3625 2.93506 11.3758C3.59277 10.4627 4.51348 9.75751 5.63521 9.29786C6.1079 9.14283 6.36255 8.65344 6.19839 8.12396C6.03983 7.74334 5.66628 7.54081 5.24849 7.54646Z" fill="#5B5F62"/>
</svg>
