<svg width="36" height="37" viewBox="0 0 36 37" fill="none" xmlns="http://www.w3.org/2000/svg">
<path d="M18 36.0151C27.941 36.0151 36 27.9563 36 18.0151C36 8.07401 27.941 0.0151367 18 0.0151367C8.05887 0.0151367 0 8.07401 0 18.0151C0 27.9563 8.05887 36.0151 18 36.0151Z" fill="#D8D8D8"/>
<path d="M18 8.88892C14.274 8.88892 11.25 11.9129 11.25 15.6388C11.25 19.2928 14.112 22.2628 17.91 22.3708C17.964 22.3708 18.036 22.3708 18.072 22.3708C18.108 22.3708 18.162 22.3708 18.198 22.3708C18.216 22.3708 18.234 22.3708 18.234 22.3708C21.87 22.2448 24.732 19.2928 24.75 15.6388C24.75 11.9129 21.726 8.88892 18 8.88892Z" fill="#838688"/>
<path d="M30.2054 31.2452C27.0014 34.1972 22.7174 36.0152 18.0014 36.0152C13.2854 36.0152 9.00136 34.1972 5.79736 31.2452C6.22936 29.6072 7.39936 28.1132 9.10936 26.9612C14.0234 23.6852 22.0154 23.6852 26.8934 26.9612C28.6214 28.1132 29.7734 29.6072 30.2054 31.2452Z" fill="#838688"/>
</svg>
