<svg width="22" height="20" viewBox="0 0 22 20" fill="none" xmlns="http://www.w3.org/2000/svg">
<path d="M9.16736 17.9012C9.16698 18.3247 9.27355 18.7415 9.4772 19.1128H1.76039C1.29384 19.1117 0.846721 18.9259 0.516822 18.596C0.186923 18.2661 0.00110078 17.819 0 17.3524V14.7125C0.00329953 13.5465 0.467958 12.4292 1.29246 11.6047C2.11695 10.7802 3.23427 10.3155 4.40028 10.3122H12.0115C12.1726 10.8512 12.4353 11.3544 12.7854 11.7947C11.7738 11.9686 10.8561 12.4941 10.1942 13.2786C9.53222 14.063 9.16857 15.0561 9.16736 16.0825V17.9012ZM8.36011 8.9923C7.47086 8.9923 6.60157 8.7286 5.86219 8.23456C5.1228 7.74052 4.54652 7.03831 4.20621 6.21675C3.86591 5.39519 3.77687 4.49116 3.95036 3.61899C4.12384 2.74683 4.55206 1.94569 5.18085 1.31689C5.80965 0.688096 6.61079 0.259879 7.48296 0.0863942C8.35512 -0.0870907 9.25915 0.00194824 10.0807 0.342251C10.9023 0.682554 11.6045 1.25884 12.0985 1.99822C12.5926 2.73761 12.8563 3.6069 12.8563 4.49615C12.8563 5.6886 12.3826 6.83222 11.5394 7.67541C10.6962 8.5186 9.55256 8.9923 8.36011 8.9923ZM22 17.9012C21.9989 18.2222 21.8709 18.5297 21.6439 18.7567C21.417 18.9837 21.1094 19.1117 20.7884 19.1128H11.6989C11.3779 19.1117 11.0704 18.9837 10.8434 18.7567C10.6164 18.5297 10.4884 18.2222 10.4873 17.9012V16.0825C10.4899 15.28 10.8098 14.511 11.3773 13.9435C11.9448 13.3761 12.7137 13.0561 13.5162 13.0536H18.9697C19.7722 13.0561 20.5411 13.3761 21.1086 13.9435C21.6761 14.511 21.996 15.28 21.9986 16.0825L22 17.9012ZM19.3393 9.04787C19.3393 9.66013 19.1577 10.2586 18.8176 10.7677C18.4774 11.2768 17.9939 11.6736 17.4283 11.9079C16.8626 12.1422 16.2402 12.2035 15.6397 12.084C15.0392 11.9646 14.4877 11.6697 14.0547 11.2368C13.6218 10.8039 13.327 10.2523 13.2075 9.6518C13.0881 9.05131 13.1494 8.42888 13.3837 7.86323C13.618 7.29758 14.0147 6.81411 14.5238 6.47396C15.0329 6.13381 15.6314 5.95226 16.2437 5.95226C17.0647 5.95226 17.852 6.2784 18.4326 6.85894C19.0131 7.43948 19.3393 8.22687 19.3393 9.04787Z" fill="#5B5F62"/>
</svg>
