<svg width="16" height="16" viewBox="0 0 16 16" fill="none" xmlns="http://www.w3.org/2000/svg">
<path d="M13.8333 9.63342V14.4401C13.8333 14.7494 13.5826 15.0001 13.2733 15.0001H1.56C1.25072 15.0001 1 14.7494 1 14.4401V2.72675C1 2.41747 1.25072 2.16675 1.56 2.16675H6.36667" stroke="#5B5F62" stroke-linecap="round" stroke-linejoin="round"/>
<path d="M12.8991 5.19742L12.8968 5.19979M4.38379 11.3466C4.38848 11.5003 4.51679 11.6211 4.67046 11.6165L7.22068 10.9165L10.0599 8.05697L12.8968 5.19979M4.38379 11.3466C4.38379 11.3411 4.38379 11.3355 4.38379 11.33M4.38379 11.3466V11.33M4.38379 11.33L5.08379 8.81665L7.94231 5.95814L10.8008 3.09964M10.8017 3.09879L11.9109 1.98958C12.4577 1.44295 13.344 1.44292 13.8909 1.98951L14.0108 2.10919C14.5569 2.65524 14.5577 3.54039 14.0126 4.08743L12.9004 5.20346L12.8968 5.19979" stroke="#5B5F62" stroke-width="1.2" stroke-linecap="round" stroke-linejoin="round"/>
<path d="M10.917 3.33325L11.9378 4.35409L12.9587 5.37492" stroke="#5B5F62" stroke-width="1.2"/>
</svg>
