<svg width="21" height="23" viewBox="0 0 21 23" fill="none" xmlns="http://www.w3.org/2000/svg">
<path d="M1.2915 5.55948H3.32854H19.6248" stroke="white" stroke-width="2" stroke-linecap="round" stroke-linejoin="round"/>
<path d="M17.1247 5.39282V19.3928C17.1247 19.9233 16.9115 20.432 16.5319 20.807C16.1524 21.1821 15.6376 21.3928 15.1009 21.3928H4.98182C4.44507 21.3928 3.93031 21.1821 3.55077 20.807C3.17123 20.432 2.95801 19.9233 2.95801 19.3928V5.39282M5.99372 5.39282V3.39282C5.99372 2.86239 6.20694 2.35368 6.58648 1.97861C6.96602 1.60354 7.48078 1.39282 8.01753 1.39282H12.0652C12.6019 1.39282 13.1167 1.60354 13.4962 1.97861C13.8757 2.35368 14.089 2.86239 14.089 3.39282V5.39282" stroke="white" stroke-width="2" stroke-linecap="round" stroke-linejoin="round"/>
<path d="M7.95801 10.5595V16.3928" stroke="white" stroke-width="2" stroke-linecap="round" stroke-linejoin="round"/>
<path d="M12.125 10.5595V16.3928" stroke="white" stroke-width="2" stroke-linecap="round" stroke-linejoin="round"/>
</svg>
